<?xml version="1.0" encoding="utf-8"?>
<!-- Generator: Adobe Illustrator 25.1.0, SVG Export Plug-In . SVG Version: 6.00 Build 0)  -->
<svg version="1.1" id="Logo" xmlns="http://www.w3.org/2000/svg" xmlns:xlink="http://www.w3.org/1999/xlink" x="0px" y="0px"
	 viewBox="0 0 118.3 118.3" style="enable-background:new 0 0 118.3 118.3;" xml:space="preserve">
<style type="text/css">
	.st0{fill:#3AC4AA;stroke:#3AC4AA;stroke-width:0.5;stroke-miterlimit:10;}
	.st1{fill:#2D3F51;stroke:#3AC4AA;stroke-width:0.5;stroke-miterlimit:10;}
	.st2{fill:#FFFFFF;}
	.st3{fill:#2D3F51;}
</style>
<g>
	<g>
		<line class="st0" x1="59.3" y1="5.1" x2="59.3" y2="115.1"/>
		<line class="st0" x1="43.3" y1="7.3" x2="43.3" y2="111.5"/>
		<line class="st0" x1="75.3" y1="7.1" x2="75.3" y2="113.1"/>
		<line class="st0" x1="91.3" y1="16" x2="91.3" y2="106"/>
		<line class="st0" x1="27.3" y1="13.9" x2="27.3" y2="103.9"/>
		<line class="st0" x1="11.2" y1="33.8" x2="11.2" y2="87.8"/>
		<line class="st0" x1="107.3" y1="58.7" x2="107.3" y2="82.7"/>
		<line class="st0" x1="23" y1="18.1" x2="94.7" y2="18.1"/>
		<line class="st0" x1="9.6" y1="34.2" x2="108.3" y2="34.2"/>
		<line class="st0" x1="5.4" y1="50.3" x2="114" y2="50.3"/>
		<line class="st0" x1="4.6" y1="66.4" x2="112.2" y2="66.4"/>
		<line class="st0" x1="7.7" y1="82.5" x2="107.3" y2="82.5"/>
		<line class="st0" x1="23.1" y1="98.6" x2="98.7" y2="98.6"/>
	</g>
	<g>
		<rect x="27" y="100.7" class="st1" width="3.8" height="5.9"/>
		<rect x="30.8" y="97.7" class="st1" width="3.8" height="10.3"/>
		<rect x="34.7" y="99.8" class="st1" width="3.8" height="10.1"/>
		<rect x="38.5" y="98.6" class="st1" width="3.8" height="12.4"/>
		<rect x="42.4" y="99.8" class="st1" width="3.8" height="12.3"/>
		<rect x="46.2" y="96.4" class="st1" width="3.8" height="16.6"/>
		<rect x="50.1" y="94.8" class="st1" width="3.8" height="19.4"/>
		<rect x="53.9" y="96.2" class="st1" width="3.8" height="18.1"/>
		<rect x="57.8" y="96.2" class="st1" width="3.8" height="18.1"/>
		<rect x="61.6" y="99.4" class="st1" width="3.8" height="14.8"/>
		<rect x="65.5" y="94.8" class="st1" width="3.8" height="19.4"/>
		<rect x="69.3" y="92.5" class="st1" width="3.8" height="21.7"/>
		<rect x="73.2" y="91.2" class="st1" width="3.8" height="23"/>
		<rect x="77" y="92.9" class="st1" width="3.8" height="17.1"/>
		<rect x="80.9" y="94.8" class="st1" width="3.8" height="15.2"/>
		<rect x="84.7" y="93.9" class="st1" width="3.8" height="14.1"/>
		<rect x="88.6" y="96.5" class="st1" width="3.8" height="8.7"/>
		<rect x="92.4" y="95.6" class="st1" width="3.8" height="7.3"/>
	</g>
	<g id="XMLID_1_">
		<g>
			<path class="st2" d="M22.4,73.2l-4.1-1.8L17,70.1l0.3-2.6l2.7,2.3l7.3-20.5c1.9,1.6,3.4,3.3,3.8,5.2c1.6,5.6,3.6,12.1,5.8,19.2
				l-1.2,0.1c-3.3-6.2-6.7-12.3-7.8-19.4c-0.2,0-0.2,0-0.4,0L22.4,73.2z"/>
			<path class="st3" d="M105.6,33.6c-0.7-1.3-1.5-2.6-2.3-3.8l-6.3,9.5l-5.7-8.1l-5.7,5.5l-2.7,3.5l-8.5,14.4
				c-6.9-10.8-12.2-20.5-14.7-27.4l-7.1,20l-4.2-4.4c-1,5.5-2,10.2-2.8,12.3c-2.5,5.7-5.2,11.7-8.2,17.9L37,73.8
				c-2.2-7.1-4.2-13.6-5.8-19.2c-0.4-1.9-1.9-3.6-3.8-5.2L20,69.9l-2.7-2.3L17,70.1l-6.1,3l-1,5.6c0.4,1,0.8,2,1.3,3l7.1-10.3
				l4.1,1.8l5.2-18.7c0.2,0,0.2,0,0.4,0c1.1,7.1,4.6,13.1,7.8,19.4c0.5,0.9,0.9,1.8,1.4,2.7l0.8,2.8l-24.4,6.7
				c9.2,15.6,26.2,26,45.6,26c29.3,0,53-23.7,53-53L74.7,69.4L74,66.9c0.2-0.5,0.4-0.8,0.6-1.2c2.9-6.2,5.7-12.4,8.6-18.7
				c0.6-1.3,1.4-2.4,2.4-3.4c2-1.9,4-3.9,6-5.9c1.8,2.3,3.5,4.6,5.3,6.9C99.8,40.9,102.7,37.3,105.6,33.6z M59.1,0.3
				c32.5,0,58.9,26.4,58.9,58.9c0,32.5-26.4,58.9-58.9,58.9S0.3,91.6,0.3,59.1C0.3,26.6,26.6,0.3,59.1,0.3z M96.9,29.3l2.8-4.3
				C90,13.5,75.4,6.1,59.1,6.1c-29.3,0-53,23.7-53,53c0,3.1,0.3,6.1,0.8,9l3-1.1l1.3-0.6l0.4-0.3l0.4-0.7l0.2-0.7l0-0.2l1.4-7.9
				l4,3.5l3.3-9.6l0.2-0.5l4-10.8l2.2,2.1l0.5,0.5l6.4,6.2l1.5,2.1l0.1,0.4l2.3,7.5l0.4,0l2.7-7.6l0.1-0.5l2.7-12.7l0.6-2.8l0.7-3
				l0.5-0.3l2.8,3.2l2.1,2.2l0.7-2.2l5.7-16L57,18l2-5.3l0.6,0.9l2.1,4.4l0.2,0.5l0.7,1.5l6.9,14.7l0.2,0.5l4.7,8.6l0.9-1.6l0.6-0.9
				l3.3-5.6l0.4-0.8l1.5-1.5L91.5,23l0.5-0.4L96.9,29.3z"/>
			<path class="st2" d="M11.2,81.8c-0.5-1-0.9-2-1.3-3l1-5.6l6.1-3l1.2,1.3L11.2,81.8z"/>
			<path class="st2" d="M103.3,29.8c0.8,1.2,1.6,2.5,2.3,3.8c-2.9,3.7-5.8,7.3-8.7,11.1c-1.8-2.3-3.5-4.6-5.3-6.9c-2,2-4,4-6,5.9
				c-1,1-1.8,2.1-2.4,3.4c-2.8,6.2-5.7,12.5-8.6,18.7c-0.2,0.4-0.3,0.7-0.6,1.2c-1.8-3-3.5-5.9-5.2-8.8c-0.2-0.4-0.4-0.9-0.7-1.3
				c-4-6.3-6.2-13.3-7.7-20.5c-0.2-0.7-0.4-1.5-0.6-2.5c-1.5,5.7-2.9,11-4.4,16.5L52,48.2l0.6-1l7.1-20c2.5,6.9,7.8,16.6,14.7,27.4
				l8.5-14.4l2.7-3.5l5.7-5.5l5.7,8.1L103.3,29.8z"/>
			<path class="st3" d="M74.7,69.4L37.9,79.4l-0.8-2.8c2.5-3.6,4.8-7.1,7.3-10.5c1.5-2,2.5-4.3,3-6.7c0.8-4.1,1.9-8.2,2.9-12.4
				l1.7,1.1l3.5,2.3c1.5-5.5,2.9-10.9,4.4-16.5c0.3,1,0.5,1.8,0.6,2.5c1.5,7.2,3.7,14.2,7.7,20.5c0.3,0.4,0.4,0.9,0.7,1.3
				c1.7,2.9,3.4,5.8,5.2,8.8L74.7,69.4z"/>
			<path class="st2" d="M48.5,42.8l4.2,4.4l-0.6,1l-1.7-1.1c-1,4.2-2,8.3-2.9,12.4c-0.5,2.4-1.5,4.7-3,6.7
				c-2.5,3.4-4.8,6.8-7.3,10.5c-0.5-0.9-0.9-1.8-1.4-2.7l1.2-0.1l0.5-0.9c2.9-6.2,5.7-12.1,8.2-17.9C46.5,53,47.4,48.2,48.5,42.8z"
				/>
		</g>
		<g>
		</g>
	</g>
</g>
</svg>
