<?xml version="1.0" encoding="utf-8"?>
<!-- Generator: Adobe Illustrator 25.1.0, SVG Export Plug-In . SVG Version: 6.00 Build 0)  -->
<svg version="1.1" id="Layer_1" xmlns="http://www.w3.org/2000/svg" xmlns:xlink="http://www.w3.org/1999/xlink" x="0px" y="0px"
	 viewBox="0 0 535.7 540.6" style="enable-background:new 0 0 535.7 540.6;" xml:space="preserve">
<style type="text/css">
	.st0{clip-path:url(#SVGID_2_);}
	.st1{fill:#009172;}
	.st2{fill:#FFFFFF;}
</style>
<g transform="matrix(1.3333 0 0 -1.3333 -45.355 943.04)">
	<g transform="matrix(2.2956 0 0 2.2956 -44.072 -777.99)">
		<g>
			<defs>
				<polyline id="SVGID_1_" points="208.9,498.8 208.9,546.6 34,546.6 34,498.8 34,498.8 				"/>
			</defs>
			<clipPath id="SVGID_2_">
				<use xlink:href="#SVGID_1_"  style="overflow:visible;"/>
			</clipPath>
			<g class="st0">
				<g transform="translate(70.882 619.29)">
					<path d="M1-101.2h3.8v8.3h6.4v3H4.8v4.7h6.7v3H1V-101.2z M14.2-101.2h3.6v5.1c0,2,0,5.7,3,5.7c0.7,0,1.3-0.1,1.6-0.3v3.7
						c-0.4,0.1-0.8,0.1-1.1,0.1c-2.2,0-3.7-2.2-3.8-3.5h-0.1v3.2h-3.2C14.2-87.1,14.2-101.2,14.2-101.2z M25.2-91
						c1.2,0.9,2.8,1.5,4.3,1.5c2.1,0,3.2-0.8,3.2-3h-2c-1.5,0-3.3-0.1-4.7-0.8c-1.4-0.7-2.4-1.9-2.4-4c0-2.7,2.4-4.2,4.9-4.2
						c1.7,0,3.5,0.9,4.3,2.4h0.1c0-0.4,0-1.4,0.2-2.1h3.2c-0.1,1.1-0.1,2.1-0.2,3.1c0,1-0.1,2.1-0.1,3.5v1.8c0,4.1-1.8,5.9-6,5.9
						c-1.6,0-3.5-0.4-4.9-1.1L25.2-91L25.2-91z M27-97.1c0,2.2,2.4,2.4,4.1,2.4h1.6c0-1.1-0.2-2.1-0.8-2.9c-0.6-0.8-1.4-1.3-2.6-1.3
						C28-98.8,27-98.3,27-97.1 M51.9-87.1h-3.6V-94c0-1.8-0.6-4.7-3.2-4.7c-2.3,0-2.4,2.3-2.4,4v7.5H39V-96c0-3.2,1.4-5.5,4.8-5.5
						c1.9,0,3.5,0.9,4.6,2.2h0.1v-1.9h3.5C51.9-101.2,51.9-87.1,51.9-87.1z M55.6-101.2h3.6v6.9c0,1.8,0.6,4.7,3.2,4.7
						c2.3,0,2.4-2.3,2.4-4v-7.5h3.6v8.8c0,3.2-1.4,5.5-4.8,5.5c-1.9,0-3.5-0.6-4.6-2.2h-0.1v1.9h-3.5
						C55.6-87.1,55.6-101.2,55.6-101.2z M72.3-101.2h3.6v6.9c0,1.8,0.6,4.7,3.2,4.7c2.3,0,2.4-2.3,2.4-4v-7.5h3.6v8.8
						c0,3.2-1.4,5.5-4.8,5.5c-1.9,0-3.5-0.9-4.4-2.2h-0.1v8.3h-3.6C72.3-80.7,72.3-101.2,72.3-101.2z M87.5-94.2
						c0-4,2.7-7.2,7.3-7.2c4.7,0,7.3,3.2,7.3,7.2c0,4.6-3.2,7.4-7.3,7.4C90.6-86.8,87.5-89.6,87.5-94.2 M91.3-93.8
						c0,2.1,1.1,4.2,3.5,4.2c2.4,0,3.5-2,3.5-4.2c0-2.3-0.7-4.8-3.5-4.8C92-98.6,91.3-96.1,91.3-93.8 M105.8-101.2h3.6v11.3h3.2v2.7
						h-3.2v1.7c0,1.1,0.4,2.2,1.6,2.2c0.8,0,1.3-0.3,1.6-0.5l0.3,3c-0.7,0.2-1.7,0.3-2.7,0.3c-2.9,0-4.5-2-4.5-4.8v-2h-2.7v-2.7h2.7
						L105.8-101.2L105.8-101.2z M117.4-92.8c0.2,1.9,1.2,3.3,3.2,3.3c2,0,2.9-1.5,3-3.3H117.4z M126.1-97.4
						c-1.4-0.8-2.9-1.4-4.7-1.4c-2.3,0-3.8,1.3-4,3.5h9.7c0,4.9-1.5,8.5-6.7,8.5c-4.4,0-6.5-3.3-6.5-7.4c0-4.6,2.7-7.3,7.3-7.3
						c2,0,3.5,0.4,4.8,1.1V-97.4z M129.7-101.2h3.6v5.1c0,2,0,5.7,3,5.7c0.7,0,1.3-0.1,1.6-0.3v3.7c-0.4,0.1-0.8,0.1-1.1,0.1
						c-2.2,0-3.7-2.2-3.8-3.5H133v3.2h-3.2L129.7-101.2L129.7-101.2z"/>
				</g>
				<g transform="translate(199.75 608.42)">
					<path d="M9.1-100v-1.5"/>
				</g>
				<g transform="translate(34.016 619.29)">
					<path class="st1" d="M0-101.2c6.7,3.5,16.6,9.1,28.3,17.3v2.8C18-87.9,7.5-93.3,0-96.9C0-96.9,0-101.2,0-101.2z"/>
				</g>
				<g transform="translate(34.016 627.3)">
					<path class="st1" d="M0-100.9c7.5,3.1,18,7.8,28.3,13.9v1.4C18.6-90.5,8.5-93.5,0-95.4V-100.9z"/>
				</g>
				<g transform="translate(61.595 619.28)">
					<path class="st1" d="M0.8-101.2v13.9c-6.5-5.4-12.8-10.2-18.2-13.9H0.8z"/>
				</g>
				<g transform="translate(40.348 619.28)">
					<path class="st1" d="M0.2-101.2c5.1,3,11.3,7,17.4,11.6c1.4,1.1,2.9,2.2,4.4,3.3v1.7C12.9-91.3,3.6-97-3.7-101.2
						C-3.7-101.2,0.2-101.2,0.2-101.2z"/>
				</g>
				<g transform="translate(34.016 634.68)">
					<path class="st1" d="M0-100.7c8.3,1.5,18.4,4.1,28.3,8.8v1.5c-10-4.5-20-6.4-28.3-7.1C0-97.4,0-100.7,0-100.7z"/>
				</g>
				<g transform="translate(34.016 647)">
					<path class="st1" d="M0-100.4v-7.9c0.6,0,1.3,0.1,1.9,0.1c6.9,0.5,16.3,1.7,26.5,6.1v1.7C28.3-100.4,0-100.4,0-100.4z"/>
				</g>
				<g transform="translate(34.016 639.28)">
					<path class="st2" d="M0-100.6v-1.5c8.4,0.7,18.4,2.6,28.3,7.1v0.7c-10.2-4.4-19.6-5.6-26.5-6.1C1.3-100.5,0.6-100.6,0-100.6"/>
				</g>
				<g transform="translate(34.016 632.72)">
					<path class="st2" d="M0-100.8c8.5,1.9,18.6,4.9,28.3,9.7v1.1C18.4-94.7,8.3-97.3,0-98.8V-100.8z"/>
				</g>
				<g transform="translate(34.016 623.46)">
					<path class="st2" d="M0-101c7.5,3.6,18,9,28.3,15.8v2.1C18-89.3,7.5-94,0-97.1C0-97.1,0-101,0-101z"/>
				</g>
				<g transform="translate(40.348 619.28)">
					<path class="st2" d="M0.2-101.2h3.6c5.4,3.7,11.8,8.4,18.2,13.9v1.1c-1.5-1.1-3-2.3-4.4-3.3C11.5-94.2,5.3-98.1,0.2-101.2"/>
				</g>
				<g transform="translate(34.016 619.28)">
					<path class="st2" d="M0-101.2h2.6c7.3,4.1,16.6,9.8,25.7,16.6v0.7C16.6-92.1,6.7-97.7,0-101.2C0-101.1,0-101.2,0-101.2z"/>
				</g>
			</g>
		</g>
	</g>
</g>
<g>
	<path d="M487,453.6h-5.9v-29h5.9V453.6z"/>
	<path d="M511.5,448.9v4.7h-17.3v-29h5.9v24.2H511.5z"/>
	<path d="M526.9,453.6H521v-24.2h-8.3v-4.8h22.6v4.8h-8.4V453.6z"/>
</g>
</svg>
