<?xml version="1.0" encoding="utf-8"?>
<!-- Generator: Adobe Illustrator 25.1.0, SVG Export Plug-In . SVG Version: 6.00 Build 0)  -->
<svg version="1.1"
	 id="svg2" xmlns:cc="http://creativecommons.org/ns#" xmlns:dc="http://purl.org/dc/elements/1.1/" xmlns:inkscape="http://www.inkscape.org/namespaces/inkscape" xmlns:rdf="http://www.w3.org/1999/02/22-rdf-syntax-ns#" xmlns:sodipodi="http://sodipodi.sourceforge.net/DTD/sodipodi-0.dtd" xmlns:svg="http://www.w3.org/2000/svg"
	 xmlns="http://www.w3.org/2000/svg" xmlns:xlink="http://www.w3.org/1999/xlink" x="0px" y="0px" viewBox="0 0 340 460"
	 style="enable-background:new 0 0 340 460;" xml:space="preserve">
<style type="text/css">
	.st0{fill:#0A1D3D;}
</style>
<sodipodi:namedview  bordercolor="#666666" borderopacity="1.0" gridtolerance="10.0" guidetolerance="10.0" id="base" inkscape:current-layer="layer1" inkscape:cx="148.8752" inkscape:cy="255.25866" inkscape:pageopacity="0.0" inkscape:pageshadow="2" inkscape:window-height="713" inkscape:window-width="761" inkscape:window-x="255" inkscape:window-y="0" inkscape:zoom="1.4085567" objecttolerance="10.0" pagecolor="#ffffff" showgrid="false">
	</sodipodi:namedview>
<defs>
	
		<inkscape:perspective  id="perspective11" inkscape:persp3d-origin="400 : 333.33333 : 1" inkscape:vp_x="0 : 500 : 1" inkscape:vp_y="0 : 1000 : 0" inkscape:vp_z="800 : 500 : 1" sodipodi:type="inkscape:persp3d">
		</inkscape:perspective>
</defs>
<g id="path22" transform="matrix(1.33333,0,0,-1.33333,402.827,236.545)">
	<path class="st0" d="M-126.5,30.3c-1,0-1.6,0-2.3,0c-0.7-1-1.3-2.3-2.3-3.9c17.7,0,34.1-1.3,52.1-4.6l-4.9-4.9
		c-16.1,2.9-29.5,3.9-46.9,3.9c-2.6,0-2.9,0-3.6,0c-0.7-1-2-2.6-3.3-4.3c1.6,0,4.6,0,8.5,0c14.1,0,27.2-1,41.6-3.3l-4.9-4.9
		c-10.8,1.6-24.3,2.6-36.1,2.6c-4.3,0-9.2,0-13.4-0.3c-1-1-3.6-3.9-4.3-4.6c5.6,0.7,12.1,1,19.3,1c10.5,0,21-0.7,30.5-2l-4.9-4.9
		c-6.9,1-15.1,1.3-22.6,1.3c-19,0-34.1-4.3-49.5-13.4c14.7-15.7,39-25.9,62.3-25.9h2.3l-8.2-7.9c-33.8,6.2-69.2,21.3-99.3,41.6
		c-28.8,19.3-39,25.2-61.6,35.1v5.9l15.1-6.6l5.2,4.3l49.8-22.9L-211,9l-25.6,11.1l-2.6-2l13.1-7.5c11.1-6.2,19.7-9.2,27.5-9.2
		c17.4,0,32.8,12.1,42.6,33.8c7.5,1,15.4,1.3,25.2,1.3c19.7,0,39-2,60.6-5.9l-5.2-5.2C-88.8,28-111.7,30.3-126.5,30.3 M-175-111.6
		c-64.6,0-117.3,52.4-117.3,117.3S-239.9,123-175,123S-57.7,70.6-57.7,5.7S-110.1-111.6-175-111.6 M-175,130.2
		c-68.8,0-124.9-55.7-124.9-124.9s55.7-124.9,124.9-124.9c68.8,0,124.9,55.7,124.9,124.9S-105.8,130.2-175,130.2"/>
</g>
</svg>
