<?xml version="1.0" encoding="utf-8"?>
<!-- Generator: Adobe Illustrator 25.1.0, SVG Export Plug-In . SVG Version: 6.00 Build 0)  -->
<svg version="1.1"
	 id="svg2" xmlns:cc="http://creativecommons.org/ns#" xmlns:dc="http://purl.org/dc/elements/1.1/" xmlns:inkscape="http://www.inkscape.org/namespaces/inkscape" xmlns:rdf="http://www.w3.org/1999/02/22-rdf-syntax-ns#" xmlns:sodipodi="http://sodipodi.sourceforge.net/DTD/sodipodi-0.dtd" xmlns:svg="http://www.w3.org/2000/svg"
	 xmlns="http://www.w3.org/2000/svg" xmlns:xlink="http://www.w3.org/1999/xlink" x="0px" y="0px" viewBox="0 0 340 460"
	 style="enable-background:new 0 0 340 460;" xml:space="preserve">
<style type="text/css">
	.st0{fill:none;}
	.st1{fill-rule:evenodd;clip-rule:evenodd;fill:#00549F;}
	.st2{fill-rule:evenodd;clip-rule:evenodd;fill:#8EBAE5;}
</style>
<sodipodi:namedview  bordercolor="#666666" borderopacity="1.0" gridtolerance="10.0" guidetolerance="10.0" id="base" inkscape:current-layer="layer1" inkscape:cx="148.8752" inkscape:cy="255.25866" inkscape:pageopacity="0.0" inkscape:pageshadow="2" inkscape:window-height="713" inkscape:window-width="761" inkscape:window-x="255" inkscape:window-y="0" inkscape:zoom="1.4085567" objecttolerance="10.0" pagecolor="#ffffff" showgrid="false">
	</sodipodi:namedview>
<defs>
	
		<inkscape:perspective  id="perspective11" inkscape:persp3d-origin="400 : 333.33333 : 1" inkscape:vp_x="0 : 500 : 1" inkscape:vp_y="0 : 1000 : 0" inkscape:vp_z="800 : 500 : 1" sodipodi:type="inkscape:persp3d">
		</inkscape:perspective>
</defs>
<g>
	<rect id="canvas_background" x="3.7" y="185" class="st0" width="332.8" height="91.6"/>
</g>
<g>
	<path id="rwth" class="st1" d="M19.7,228.8h-0.5H5.8v-4.7v-36.8V187h13.3h0h9.4c6.2,0,11.5,4,13.3,9.3c1.6,4.9,0.2,10.3-3.4,14.1
		c0.5,1.3,1,2.3,1.4,3.5c1,2.3,1.9,4.7,2.9,7l3.3,8H46H32c0,0-0.1-0.3-0.2-0.5c-0.6-1.2-1.1-2.6-1.6-3.8l-3.4-8
		c-1.3-3.3-2.7-6.3-4-9.6c1.7,0,2.9,0.3,4.6-0.5c1.1-0.6,2.9-2,2.9-4.6c0-1.3-0.4-2.3-1.3-3.4c-0.9-1-2.1-1.7-3.8-1.7
		c0,0-5.4,0-5.4,0L19.7,228.8C19.7,228.8,19.7,228.8,19.7,228.8z M158.3,187.1H151v15.1H142h-0.7v-12.5v-2.6h-10H95.9h-9.8H85v18.8
		c0.1,0.9,0.3,1.7,0.4,2.6l-3.8-8.5c-1.7-3.9-3.3-7.8-5-11.8c-0.1-0.4-0.2-0.6-0.4-1.1H61.9c0,2,0,4.3,0,6.3v12.5
		c0.1,0.8,0.4,1.8,0.5,2.6l-0.1-0.2c-3.1-7-6.1-14.1-9-21.2H39.1c0.3,0.8,0.7,1.6,1,2.4l3.2,7.4l2.2,5.2l0.1,0.3
		c1,2.4,1.8,4.3,2.8,6.6c2.8,6.7,5.6,13.2,8.4,19.8h14.3V207c0.4,1.2,0.6,2.5,0.9,3.8c2.4,6,5.1,12.1,7.6,18.1H94v-17v-15.2h9.8
		v14.1v0.7v17.3h13.8h0.1v-14.3v-13.8v-3v-1h9.7v32.1h6.1c2.5,0,5.2,0,7.8,0v-17h0.1h8.3h1.3v17h3h10.9v-41.8H158.3L158.3,187.1z"/>
	<path id="aachen" class="st2" d="M214.3,187.3H204l-8.7,32.8l-8.7-32.8h-10.4l-11,41.6h8.7l1.9-8.8h11.1l1.9,8.8h12.8l1.9-8.8h11.1
		l1.9,8.8h8.7L214.3,187.3L214.3,187.3z M177.3,213.2l4-18.7h0.1l4,18.7H177.3z M205.1,213.2l4-18.7h0.1l4,18.7H205.1L205.1,213.2z
		 M241.9,201.3c0-6.1-1.2-8.7-5-8.7c-4.3,0-5.2,4.3-5.2,16c0,12.6,1.7,14.9,5.4,14.9c3,0,5.2-1.6,5.2-10.5h8.4
		c0,9-2.2,16.7-13.2,16.7c-12.6,0-14.2-9-14.2-21.6c0-12.6,1.6-21.6,14.2-21.6c12,0,12.9,8.8,12.9,14.9H241.9L241.9,201.3z
		 M252,187.3h8.4v15.9h9.8v-15.9h8.4v41.6h-8.4v-18.5h-9.8v18.5H252C252,228.9,252,187.3,252,187.3z M304.1,187.3v6.9h-14.9v9.8h14
		v6.9h-14V222h15.4v6.9h-23.8v-41.6H304.1L304.1,187.3z M316.2,187.3l10.1,28.5h0.1v-28.5h7.7v41.6h-9.6l-10.3-29.1h-0.1v29.1h-7.7
		v-41.6C306.6,187.3,316.2,187.3,316.2,187.3z"/>
	<path id="university" class="st2" d="M225.5,238.8h4c3.8,0,5.8,1.9,5.8,5.8c0,4.5-2.3,6.2-6.3,6.2h-3.5V238.8z M217.1,274.2h8.4
		v-17.6h4.5c3.4,0,4.8,2,5,5.2l0.2,8c0.1,1.6,0.2,3.2,1,4.4h9.1v-0.4c-1.6-0.8-1.8-3.1-1.9-7.5c-0.1-8.8-1-11.9-6.7-12.7v-0.1
		c4.7-1,6.9-4.7,6.9-10.3c0-7.1-4.2-10.7-11.1-10.7h-15.5L217.1,274.2L217.1,274.2L217.1,274.2z M93.7,232.6v29
		c0,11.1,6.5,13.4,13.3,13.4c6.8,0,13.3-2.8,13.3-13.4v-29h-8.4v29c0,4.1-1,7.2-4.9,7.2s-4.9-3.1-4.9-7.2v-29H93.7L93.7,232.6z
		 M122,232.6v41.6h7.7v-29.1h0.1l10.3,29.1h9.6v-41.6H142v28.5h-0.1l-10.1-28.5C131.7,232.6,122,232.6,122,232.6z M160.2,232.6h-8.4
		v41.6h8.4V232.6z M160.8,232.6l9.6,41.6h10.8l9.6-41.6H182l-6.2,30.8h-0.2l-5.9-30.8H160.8L160.8,232.6z M191.4,232.6v41.6h23.8
		v-6.9h-15.4v-11.2h14v-6.9h-14v-9.8h14.9v-6.9H191.4z M244.4,261.2v1.7c0,7.7,3.7,12.1,13.2,12.1c9.1,0,14.4-4,14.4-12.8
		c0-5.1-1.6-8.3-7.9-11l-6.5-2.8c-3.6-1.5-4.3-3.1-4.3-5.7c0-2.4,1-4.8,4.8-4.8c3.2,0,4.5,2.3,4.5,6.2h8V243c0-8-5.4-11.2-12.9-11.2
		c-7.9,0-12.9,4.1-12.9,12.2c0,6.9,3.4,10,10.9,12.6c5.5,1.9,7.5,3.3,7.5,7.1c0,3.5-2.4,5.1-5,5.1c-4.4,0-5.5-2.5-5.5-6.4v-1.2
		H244.4L244.4,261.2z M281.5,232.6h-8.4v41.6h8.4V232.6z M325.1,232.6l-5.8,16.1h-0.1l-5.5-16.1h-31.1v6.9h9.1v34.7h8.4v-34.7h7.1
		l7.8,18.4v16.4h8.4v-16.4l10.8-25.2H325.1z"/>
</g>
</svg>
