<?xml version="1.0" encoding="utf-8"?>
<!-- Generator: Adobe Illustrator 25.1.0, SVG Export Plug-In . SVG Version: 6.00 Build 0)  -->
<svg version="1.1"
	 id="svg2" xmlns:cc="http://creativecommons.org/ns#" xmlns:dc="http://purl.org/dc/elements/1.1/" xmlns:inkscape="http://www.inkscape.org/namespaces/inkscape" xmlns:rdf="http://www.w3.org/1999/02/22-rdf-syntax-ns#" xmlns:sodipodi="http://sodipodi.sourceforge.net/DTD/sodipodi-0.dtd" xmlns:svg="http://www.w3.org/2000/svg"
	 xmlns="http://www.w3.org/2000/svg" xmlns:xlink="http://www.w3.org/1999/xlink" x="0px" y="0px" viewBox="0 0 340 460"
	 style="enable-background:new 0 0 340 460;" xml:space="preserve">
<style type="text/css">
	.st0{fill-rule:evenodd;clip-rule:evenodd;fill:#0F4860;}
	.st1{fill:#0F4860;}
	.st2{fill:none;stroke:#0D8FC8;stroke-width:6;stroke-miterlimit:10;}
	.st3{fill:none;stroke:#164E65;stroke-width:6;stroke-miterlimit:10;}
</style>
<sodipodi:namedview  bordercolor="#666666" borderopacity="1.0" gridtolerance="10.0" guidetolerance="10.0" id="base" inkscape:current-layer="layer1" inkscape:cx="148.8752" inkscape:cy="255.25866" inkscape:pageopacity="0.0" inkscape:pageshadow="2" inkscape:window-height="713" inkscape:window-width="761" inkscape:window-x="255" inkscape:window-y="0" inkscape:zoom="1.4085567" objecttolerance="10.0" pagecolor="#ffffff" showgrid="false">
	</sodipodi:namedview>
<defs>
	
		<inkscape:perspective  id="perspective11" inkscape:persp3d-origin="400 : 333.33333 : 1" inkscape:vp_x="0 : 500 : 1" inkscape:vp_y="0 : 1000 : 0" inkscape:vp_z="800 : 500 : 1" sodipodi:type="inkscape:persp3d">
		</inkscape:perspective>
</defs>
<g>
	<path id="path5017" class="st0" d="M163,206.8c-4,0-7.4,1.4-10.4,4c-3.8,3.5-5.8,8.9-5.8,16.1c0,11.5,5.6,18.4,14.7,18.4
		c9.6,0,16.1-7.9,16.1-19.5C177.7,214.2,172,206.8,163,206.8z M162.5,211.3c6.3,0,10.1,5.3,10.1,14.6c0,9.3-4,15-10.5,15
		c-6.2,0-9.9-5.5-9.9-14.6C152.1,217.1,156.1,211.3,162.5,211.3"/>
	<path id="path5019" class="st0" d="M185.3,207.6c0.3,1.5,0.4,3.5,0.4,5.8v25.2c0,2.4-0.1,4.4-0.4,5.9h6c-0.3-1.6-0.4-3.5-0.4-5.9
		v-11.5h2.8c5,0,6.3,1,8.1,6.9l1.9,6.1c0.6,2.3,1,3.7,1,4c0,0.1,0,0.3-0.1,0.5h6.1c-0.7-1.5-0.9-2-2.2-5.7l-1.9-6.3
		c-1.7-5.2-2.4-6.3-5.4-7.6c4.7-1.9,6.6-4.3,6.6-8.4c0-5.9-4.5-9-13.2-9H185.3z M190.8,223.1v-11.3c0.8-0.1,1.4-0.1,2.2-0.1
		c7.1,0,9.2,1.3,9.2,5.3s-2.7,6.1-7.9,6.1H190.8"/>
	<path id="path5021" class="st0" d="M247.8,244.7c0.5-2,0.7-2.6,1.6-4.9l2.1-5.9c4.8-0.1,7.3-0.2,7.7-0.2c1.1,0,3.5,0.1,7.3,0.2
		l1.8,5.3l0.5,1.6l0.5,1.7c0.2,0.8,0.4,1.4,0.5,2.3h6.7c-1.9-3.5-2.2-4-3.5-7.1l-11.5-29.8h-5.2c-0.4,2.1-1.1,4.2-2,6.6l-9.4,24.2
		c-1.2,2.5-1.9,4.2-3.2,6.1H247.8z M264.9,229.6c-2.1-0.1-4.2-0.2-5.9-0.2c-1.9,0-4.2,0.1-6,0.2l6.1-16L264.9,229.6z M255,199.8l2,3
		l12.8-6.8l-2.7-4.2L255,199.8"/>
	<path id="path5035" class="st1" d="M110.9,207.6c0.3,1.5,0.4,3.5,0.4,5.8v25.3c0,2.4-0.1,4.3-0.4,5.8h6c-0.3-1.6-0.4-3.2-0.4-5.8
		v-11.2c4.9-0.2,5.4-0.2,8.6-0.2c3,0,3.2,0,8.7,0.2v11.2c0,2.5-0.1,4.1-0.4,5.8h6c-0.3-1.7-0.4-3.5-0.4-5.8v-25.3
		c0-2.3,0.1-4.1,0.4-5.8h-6c0.4,1.7,0.4,3.3,0.4,5.8v9.7c-1.8-0.1-6.4-0.1-8.9-0.1c-2.7,0-7.1,0.1-8.5,0.1v-9.7
		c0-2.5,0.1-4.3,0.4-5.8H110.9"/>
	<path id="path5037" class="st1" d="M212.2,207.6c1.3,1.8,2.2,3.7,3.4,6.6l11.4,30.3h4.5l11-29.8c1.5-3.9,2.3-5.8,3.2-7.1h-6.3
		c-0.3,2.1-0.6,2.9-1.5,5.4l-8.5,24.8l-8.6-24.9c-0.9-2.4-1.4-3.9-1.7-5.3L212.2,207.6"/>
	<path id="path5039" class="st1" d="M285.9,211.5v27.2c0,2.3-0.1,4.1-0.4,5.8h6c-0.3-1.8-0.4-3.4-0.4-5.8v-27.2h6.4
		c1.8,0,3,0.1,5,0.2v-4.4h-28v4.4c1.2-0.1,2.3-0.2,5-0.2L285.9,211.5"/>
	<path id="path5041" class="st1" d="M308.6,207.6c0.3,1.5,0.4,3.5,0.4,5.8v25.3c0,2.4-0.1,4.3-0.4,5.8h6c-0.3-1.6-0.4-3.2-0.4-5.8
		v-11.2c4.9-0.2,5.4-0.2,8.6-0.2c3,0,3.2,0,8.7,0.2v11.2c0,2.5-0.1,4.1-0.4,5.8h6c-0.3-1.7-0.4-3.5-0.4-5.8v-25.3
		c0-2.3,0.1-4.1,0.4-5.8h-6c0.4,1.7,0.4,3.3,0.4,5.8v9.7c-1.8-0.1-6.4-0.1-8.9-0.1c-2.7,0-7.1,0.1-8.5,0.1v-9.7
		c0-2.5,0.1-4.3,0.4-5.8H308.6"/>
	<polygon class="st2" points="74.7,264.3 20.8,264.3 35.2,210.2 89.1,210.2 	"/>
	<polygon class="st3" points="58.8,242.1 4.9,242.1 19.3,187.8 73.2,187.8 	"/>
</g>
</svg>
