<?xml version="1.0" encoding="utf-8"?>
<!-- Generator: Adobe Illustrator 25.1.0, SVG Export Plug-In . SVG Version: 6.00 Build 0)  -->
<svg version="1.1"
	 id="svg2" xmlns:cc="http://creativecommons.org/ns#" xmlns:dc="http://purl.org/dc/elements/1.1/" xmlns:inkscape="http://www.inkscape.org/namespaces/inkscape" xmlns:rdf="http://www.w3.org/1999/02/22-rdf-syntax-ns#" xmlns:sodipodi="http://sodipodi.sourceforge.net/DTD/sodipodi-0.dtd" xmlns:svg="http://www.w3.org/2000/svg"
	 xmlns="http://www.w3.org/2000/svg" xmlns:xlink="http://www.w3.org/1999/xlink" x="0px" y="0px" viewBox="0 0 340 460"
	 style="enable-background:new 0 0 340 460;" xml:space="preserve">
<style type="text/css">
	.st0{fill:none;}
	.st1{fill:#2DC6D6;}
	.st2{fill:#000099;}
</style>
<sodipodi:namedview  bordercolor="#666666" borderopacity="1.0" gridtolerance="10.0" guidetolerance="10.0" id="base" inkscape:current-layer="layer1" inkscape:cx="148.8752" inkscape:cy="255.25866" inkscape:pageopacity="0.0" inkscape:pageshadow="2" inkscape:window-height="713" inkscape:window-width="761" inkscape:window-x="255" inkscape:window-y="0" inkscape:zoom="1.4085567" objecttolerance="10.0" pagecolor="#ffffff" showgrid="false">
	</sodipodi:namedview>
<defs>
	
		<inkscape:perspective  id="perspective11" inkscape:persp3d-origin="400 : 333.33333 : 1" inkscape:vp_x="0 : 500 : 1" inkscape:vp_y="0 : 1000 : 0" inkscape:vp_z="800 : 500 : 1" sodipodi:type="inkscape:persp3d">
		</inkscape:perspective>
</defs>
<rect x="2.5" y="63.9" class="st0" width="335.9" height="339"/>
<g>
	<polygon class="st1" points="23.4,179.6 23.4,195.2 44.8,195.2 44.6,255.1 64.5,255.1 64.7,195.2 84.9,195.2 84.9,179.6 	"/>
	<path class="st1" d="M135,179.6l-0.2,42.1c0,9.2-0.4,12.2-1.9,14.9c-1.8,3-5.5,4.8-9.8,4.8c-5.1,0-9.3-2.6-10.9-6.7
		c-1-2.7-1.3-6.1-1.3-15.7l0.1-39.5h-20l-0.1,39.1v3.1c0,14.4,0.6,17.7,4.1,23.1c5.2,7.9,14.9,12.5,26.8,12.5
		c15.5,0,26.9-6.5,30.9-17.3c1.4-3.8,1.7-7.1,1.8-18.2l0.1-42.1L135,179.6L135,179.6z"/>
	<polygon class="st1" points="226.5,255.1 226.9,179.6 207,179.6 206.8,208.8 181.5,208.8 181.6,179.6 161.7,179.6 161.3,255.1 
		181.3,255.1 181.5,225.1 206.8,225.1 206.6,255.1 	"/>
	<polygon class="st1" points="299.7,255.1 300,179.6 280.1,179.6 280,208.8 254.6,208.8 254.7,179.6 234.8,179.6 234.5,255.1 
		254.4,255.1 254.6,225.1 279.8,225.1 279.7,255.1 	"/>
	<g>
		<path class="st2" d="M5.6,267.6h1.8l-1.4,6.5H14l1.4-6.5h1.8L14,282.7h-1.8l1.4-7.1H5.7l-1.4,7.1H2.5L5.6,267.6z"/>
		<path class="st2" d="M27.6,282c-0.2,0.1-0.4,0.3-0.7,0.4c-0.8,0.5-1.2,0.6-1.7,0.6c-0.7,0-1.1-0.5-1.1-1.3v-0.5
			c-1.1,1.2-2.1,1.7-3.3,1.7c-1.6,0-2.8-1.2-2.8-2.8c0-1.6,1-2.9,3-3.6c1-0.4,2.1-0.6,4-0.8l0.3-1.6c0-0.2,0.1-0.3,0.1-0.4
			c0-0.6-0.5-1-1.3-1c-1,0-2.1,0.4-3.7,1.4l-0.7-1c1.9-1.2,3.3-1.7,4.8-1.7c1.6,0,2.5,0.8,2.5,2.1c0,0.3-0.1,0.9-0.2,1.4l-1,4.9
			c-0.2,0.8-0.2,0.9-0.2,1.2c0,0.4,0.2,0.6,0.4,0.6s0.4-0.1,1-0.4L27.6,282z M24.7,276.9c-2,0.3-3.1,0.6-3.8,1.1
			c-0.9,0.5-1.3,1.2-1.3,2c0,1,0.7,1.7,1.7,1.7c0.8,0,1.6-0.4,2.3-1.1l0.5-0.6L24.7,276.9z"/>
		<path class="st2" d="M31.7,271.8h1.7l-0.5,2c2-1.6,3.3-2.3,4.5-2.3c1.1,0,2,0.8,2,1.9v0.4c1.5-1.5,3-2.3,4.4-2.3
			c1.3,0,2,0.8,2,2.2c0,0.4-0.1,0.9-0.2,1.4l-1.6,7.6h-1.7l1.6-7.7c0.1-0.4,0.1-0.8,0.1-1.1c0-0.5-0.4-0.9-1-0.9
			c-0.9,0-2.1,0.7-3.8,2.2l-1.6,7.6H36l1.7-8.1c0.1-0.2,0.1-0.3,0.1-0.6c0-0.7-0.4-1-1.1-1c-0.8,0-2,0.7-3.8,2.1l-1.6,7.6h-1.7
			L31.7,271.8z"/>
		<path class="st2" d="M51.2,266.4h1.7l-1.5,7.1c1.1-1.4,2.3-2.1,3.8-2.1c1.9,0,3.3,1.6,3.3,3.8c0,2.6-1.4,5-3.7,6.4
			c-1.2,0.7-2.5,1-4.2,1c-0.5,0-1.1,0-2.8-0.1L51.2,266.4z M49.8,281.5h0.9c1.6,0,2.8-0.4,3.8-1.3c1.4-1.1,2.2-3,2.2-4.8
			c0-1.5-0.8-2.5-2-2.5c-1.1,0-2,0.5-3.6,2.2L49.8,281.5z"/>
		<path class="st2" d="M64.1,271.8l-1.6,7.4c-0.1,0.6-0.2,1.2-0.2,1.4c0,0.5,0.4,1,1,1c1.2,0,2.3-0.7,4.1-2.6l1.5-7.2h1.7l-2.3,10.9
			h-1.7l0.6-2.3c-1.6,1.8-3,2.6-4.5,2.6c-1.3,0-2.2-0.8-2.2-2c0-0.4,0.1-0.9,0.2-1.5l1.6-7.7H64.1L64.1,271.8z"/>
		<path class="st2" d="M74.6,271.8h1.7l-0.5,1.9c0.9-1.4,2-2.2,3.3-2.2c0.3,0,0.5,0,0.9,0.1l-0.4,1.6c-0.4-0.1-0.6-0.2-0.9-0.2
			c-1.1,0-1.7,0.4-3,2.1l-1.6,7.5h-1.7L74.6,271.8z"/>
		<path class="st2" d="M90.2,272.9h-2.1c0.5,0.5,0.8,1.1,0.8,2c0,2.2-1.8,3.8-4.2,3.8c-0.5,0-0.8-0.1-1.4-0.3l-1.2,0.7
			c-0.3,0.2-0.4,0.3-0.4,0.5c0,0.3,0.2,0.4,1.4,0.7l2.8,0.8c1.8,0.5,2.8,1.6,2.8,2.8c0,2.2-2.3,3.8-5.4,3.8c-2.6,0-4.5-1.3-4.5-3
			c0-1.4,1.2-2.5,3.4-3.3c-1.1-0.3-1.6-0.3-1.9-0.5c-0.4-0.3-0.7-0.5-0.7-0.9c0-0.4,0.4-0.8,1-1.1l1.8-1c-1-0.5-1.4-1.4-1.4-2.6
			c0-1,0.5-2.2,1.4-3c0.8-0.7,1.8-1.1,3-1.1c0.7,0,1.1,0.1,1.9,0.4l3.3-0.1L90.2,272.9z M83.2,281.9c-2,1-2.9,1.8-2.9,2.8
			c0,1.2,1.3,2.1,3.1,2.1c2,0,3.5-1.1,3.5-2.6c0-0.6-0.4-1.1-1.1-1.4c-0.2-0.1-0.2-0.1-1.4-0.4L83.2,281.9z M82.7,275.6
			c0,1.2,0.8,2.1,2,2.1c1.4,0,2.5-1.3,2.5-3c0-1.3-0.8-2.2-1.9-2.2C83.8,272.5,82.7,273.9,82.7,275.6z"/>
		<path class="st2" d="M110.7,277.4c-0.4,1.9-0.9,3-1.8,3.9c-1.1,1.1-2.6,1.7-4.7,1.7c-3.3,0-5.2-1.6-5.2-4.3c0-0.6,0.1-1.3,0.3-2
			l1.9-9.1h1.9l-2,9.4c-0.1,0.6-0.2,1.1-0.2,1.6c0,1.9,1.4,3.1,3.5,3.1c2.4,0,3.8-1.4,4.5-4.4l2-9.7h1.8L110.7,277.4z"/>
		<path class="st2" d="M115.8,271.8h1.7l-0.6,2.1c1.9-1.8,3.1-2.4,4.6-2.4c1.4,0,2.3,0.8,2.3,2.2c0,0.4-0.1,0.9-0.2,1.4l-1.6,7.6
			h-1.8l1.6-7.8c0.1-0.3,0.1-0.4,0.1-0.8c0-0.8-0.4-1.2-1.2-1.2c-0.9,0-2.3,0.8-4,2.4l-1.6,7.4h-1.7L115.8,271.8z"/>
		<path class="st2" d="M128.2,271.8h1.8l-2.2,10.9H126L128.2,271.8z M129,267.5h1.9l-0.4,1.9h-1.9L129,267.5z"/>
		<path class="st2" d="M132.2,271.9l1.7-0.4l1.8,8.9l5-8.9l1.5,0.6l-6.1,10.5h-1.5L132.2,271.9z"/>
		<path class="st2" d="M151,281.4c-1.3,0.8-1.4,0.8-1.9,1c-0.7,0.4-1.6,0.6-2.4,0.6c-2.5,0-4.2-1.8-4.2-4.7c0-1.6,0.5-3,1.4-4.3
			c1.2-1.7,2.7-2.6,4.5-2.6c2.2,0,3.4,1.4,3.4,4.2c0,0.3,0,0.8-0.1,1.6h-7.3c-0.1,0.8-0.1,1-0.1,1.4c0,1.8,1.1,3.1,2.8,3.1
			c1,0,1.6-0.3,3.3-1.3L151,281.4z M150.1,276c0-0.4,0.1-0.8,0.1-0.9c0-1.6-0.7-2.4-1.9-2.4c-1,0-2,0.6-2.6,1.6
			c-0.4,0.5-0.6,0.9-0.9,1.8L150.1,276L150.1,276z"/>
		<path class="st2" d="M156,271.8h1.7l-0.5,1.9c0.9-1.4,2-2.2,3.3-2.2c0.3,0,0.5,0,0.9,0.1l-0.4,1.6c-0.4-0.1-0.6-0.2-0.9-0.2
			c-1.1,0-1.7,0.4-3,2.1l-1.6,7.5h-1.7L156,271.8z"/>
		<path class="st2" d="M161.5,281.2c0.9,0.4,1.6,0.5,2.3,0.5c1.6,0,2.6-0.8,2.6-1.9c0-0.8-0.4-1.3-1.5-1.9l-0.8-0.4
			c-1.1-0.6-1.7-1.6-1.7-2.7c0-2,1.7-3.3,4.3-3.3c0.9,0,1.7,0.1,2.8,0.4l-0.5,1.2c-0.8-0.3-1.5-0.4-2.3-0.4c-1.5,0-2.5,0.8-2.5,2
			c0,0.7,0.4,1.2,1.1,1.6l1.1,0.6c1.2,0.7,1.8,1.6,1.8,2.7c0,2-1.7,3.3-4.3,3.3c-1.1,0-1.7-0.1-2.8-0.6L161.5,281.2z"/>
		<path class="st2" d="M172.8,271.8h1.8l-2.2,10.9h-1.8L172.8,271.8z M173.6,267.5h1.9l-0.4,1.9h-1.9L173.6,267.5z"/>
		<path class="st2" d="M177,271.8h2.3l0.9-4.3h1.7l-0.9,4.3h2.6l-0.3,1.3h-2.6l-1.2,5.7c-0.1,0.7-0.3,1.3-0.3,1.7
			c0,0.6,0.4,1.1,1.1,1.1c0.5,0,0.9-0.2,2.1-0.8l0.5,1c-1.9,1.1-2.2,1.2-3.1,1.2c-1.4,0-2.3-1-2.3-2.5c0-0.6,0.1-0.9,0.3-2l1.1-5.4
			h-2.3L177,271.8z"/>
		<path class="st2" d="M185,287.5c0.2-0.3,0.4-0.7,0.6-1c0.2-0.3,0.4-0.7,0.6-1l1.8-3.1l-2.3-10.4l1.7-0.4l1.8,8.9l5-8.9l1.5,0.6
			l-7.7,13.3c-0.3,0.4-0.4,0.8-0.7,1.1l-0.6,0.9c-0.1,0.2-0.2,0.3-0.3,0.5L185,287.5z"/>
		<path class="st2" d="M212.5,276.1c0,3.9-2.6,6.9-6,6.9c-2.6,0-4.3-1.8-4.3-4.8c0-3.7,2.8-6.7,6-6.7
			C210.9,271.5,212.5,273.3,212.5,276.1z M204.8,275.1c-0.5,0.9-0.8,2.1-0.8,3.2c0,2.1,1,3.3,2.6,3.3c1.3,0,2.4-0.7,3.3-2.1
			c0.6-1,0.9-2.4,0.9-3.6c0-2-1-3.2-2.6-3.2C206.7,272.7,205.6,273.5,204.8,275.1z"/>
		<path class="st2" d="M217,273h-2.2l0.3-1.3h2.2l0.3-1.7c0.6-2.7,1.6-3.7,3.7-3.7c0.1,0,0.4,0,0.6,0h0.5l-0.3,1.3
			c-0.3-0.1-0.4-0.1-0.6-0.1c-1.3,0-1.6,0.4-2,2.1l-0.4,2.1h2.6l-0.3,1.3h-2.6l-2,9.6H215L217,273z"/>
		<path class="st2" d="M235.2,269.1h-4.8l0.3-1.4h11.1l-0.3,1.4H237l-2.8,13.6h-1.9L235.2,269.1z"/>
		<path class="st2" d="M248.4,281.4c-1.3,0.8-1.4,0.8-1.9,1c-0.7,0.4-1.6,0.6-2.4,0.6c-2.5,0-4.2-1.8-4.2-4.7c0-1.6,0.5-3,1.4-4.3
			c1.2-1.7,2.7-2.6,4.5-2.6c2.2,0,3.4,1.4,3.4,4.2c0,0.3,0,0.8-0.1,1.6h-7.3c-0.1,0.8-0.1,1-0.1,1.4c0,1.8,1.1,3.1,2.8,3.1
			c1,0,1.6-0.3,3.3-1.3L248.4,281.4z M247.6,276c0-0.4,0.1-0.8,0.1-0.9c0-1.6-0.7-2.4-1.9-2.4c-1,0-2,0.6-2.6,1.6
			c-0.4,0.5-0.6,0.9-0.9,1.8L247.6,276L247.6,276z"/>
		<path class="st2" d="M259.5,281.5c-2,1.2-2.8,1.5-4.2,1.5c-2.4,0-4-1.8-4-4.5c0-4,3.3-7.1,7.5-7.1c0.7,0,1,0.1,1.8,0.3l-0.5,1.2
			c-0.5-0.1-0.8-0.1-1.1-0.1c-3.3,0-5.9,2.6-5.9,5.9c0,1.8,1.1,3,2.6,3c1,0,1.9-0.3,3.1-1.1L259.5,281.5z"/>
		<path class="st2" d="M264.9,266.4h1.7l-1.6,7.4c1.4-1.5,3-2.3,4.5-2.3c1.3,0,2.2,0.9,2.2,2.1c0,0.4-0.1,0.9-0.2,1.5l-1.6,7.6h-1.8
			l1.4-6.9c0.2-0.8,0.3-1.4,0.3-1.7c0-0.7-0.5-1.1-1.2-1.1c-1,0-2.3,0.8-4,2.4l-1.6,7.4h-1.7L264.9,266.4z"/>
		<path class="st2" d="M276.1,271.8h1.7l-0.6,2.1c1.9-1.8,3.1-2.4,4.6-2.4c1.4,0,2.3,0.8,2.3,2.2c0,0.4-0.1,0.9-0.2,1.4l-1.6,7.6
			h-1.8l1.6-7.8c0.1-0.3,0.1-0.4,0.1-0.8c0-0.8-0.4-1.2-1.2-1.2c-0.9,0-2.3,0.8-4,2.4l-1.6,7.4h-1.7L276.1,271.8z"/>
		<path class="st2" d="M296.7,276.1c0,3.9-2.6,6.9-6,6.9c-2.6,0-4.3-1.8-4.3-4.8c0-3.7,2.8-6.7,6-6.7
			C295.1,271.5,296.7,273.3,296.7,276.1z M289,275.1c-0.5,0.9-0.8,2.1-0.8,3.2c0,2.1,1,3.3,2.6,3.3c1.3,0,2.4-0.7,3.3-2.1
			c0.6-1,0.9-2.4,0.9-3.6c0-2-1-3.2-2.6-3.2C290.9,272.7,289.8,273.5,289,275.1z"/>
		<path class="st2" d="M298.5,282.6l3.4-16.2h1.7l-3.4,16.2H298.5z"/>
		<path class="st2" d="M314.7,276.1c0,3.9-2.6,6.9-6,6.9c-2.6,0-4.3-1.8-4.3-4.8c0-3.7,2.8-6.7,6-6.7
			C313.1,271.5,314.7,273.3,314.7,276.1z M307,275.1c-0.5,0.9-0.8,2.1-0.8,3.2c0,2.1,1,3.3,2.6,3.3c1.3,0,2.4-0.7,3.3-2.1
			c0.6-1,0.9-2.4,0.9-3.6c0-2-1-3.2-2.6-3.2C308.9,272.7,307.8,273.5,307,275.1z"/>
		<path class="st2" d="M326.9,272.9h-2.1c0.5,0.5,0.8,1.1,0.8,2c0,2.2-1.8,3.8-4.2,3.8c-0.5,0-0.8-0.1-1.4-0.3l-1.2,0.7
			c-0.3,0.2-0.4,0.3-0.4,0.5c0,0.3,0.2,0.4,1.4,0.7l2.8,0.8c1.8,0.5,2.8,1.6,2.8,2.8c0,2.2-2.3,3.8-5.4,3.8c-2.6,0-4.5-1.3-4.5-3
			c0-1.4,1.2-2.5,3.4-3.3c-1.1-0.3-1.6-0.3-1.9-0.5c-0.4-0.3-0.7-0.5-0.7-0.9c0-0.4,0.4-0.8,1-1.1l1.8-1c-1-0.5-1.4-1.4-1.4-2.6
			c0-1,0.5-2.2,1.4-3c0.8-0.7,1.8-1.1,3-1.1c0.7,0,1.1,0.1,1.9,0.4l3.3-0.1L326.9,272.9z M319.9,281.9c-2,1-2.9,1.8-2.9,2.8
			c0,1.2,1.3,2.1,3.1,2.1c2,0,3.5-1.1,3.5-2.6c0-0.6-0.4-1.1-1.1-1.4c-0.2-0.1-0.2-0.1-1.4-0.4L319.9,281.9z M319.3,275.6
			c0,1.2,0.8,2.1,2,2.1c1.4,0,2.5-1.3,2.5-3c0-1.3-0.8-2.2-1.9-2.2C320.5,272.5,319.3,273.9,319.3,275.6z"/>
		<path class="st2" d="M327.8,287.5c0.2-0.3,0.4-0.7,0.6-1c0.2-0.3,0.4-0.7,0.6-1l1.8-3.1l-2.3-10.5l1.7-0.4l1.8,8.9l5-8.9l1.5,0.6
			l-7.7,13.3c-0.3,0.4-0.4,0.8-0.7,1.1l-0.6,0.9c-0.1,0.2-0.2,0.3-0.3,0.5L327.8,287.5z"/>
	</g>
</g>
</svg>
