<?xml version="1.0" encoding="utf-8"?>
<!-- Generator: Adobe Illustrator 25.1.0, SVG Export Plug-In . SVG Version: 6.00 Build 0)  -->
<svg version="1.1"
	 id="svg2" xmlns:cc="http://creativecommons.org/ns#" xmlns:dc="http://purl.org/dc/elements/1.1/" xmlns:inkscape="http://www.inkscape.org/namespaces/inkscape" xmlns:rdf="http://www.w3.org/1999/02/22-rdf-syntax-ns#" xmlns:sodipodi="http://sodipodi.sourceforge.net/DTD/sodipodi-0.dtd" xmlns:svg="http://www.w3.org/2000/svg"
	 xmlns="http://www.w3.org/2000/svg" xmlns:xlink="http://www.w3.org/1999/xlink" x="0px" y="0px" viewBox="0 0 340 460"
	 style="enable-background:new 0 0 340 460;" xml:space="preserve">
<style type="text/css">
	.st0{fill-rule:evenodd;clip-rule:evenodd;fill:#50565B;}
	.st1{fill:#50565B;}
</style>
<sodipodi:namedview  bordercolor="#666666" borderopacity="1.0" gridtolerance="10.0" guidetolerance="10.0" id="base" inkscape:current-layer="layer1" inkscape:cx="148.8752" inkscape:cy="255.25866" inkscape:pageopacity="0.0" inkscape:pageshadow="2" inkscape:window-height="713" inkscape:window-width="761" inkscape:window-x="255" inkscape:window-y="0" inkscape:zoom="1.4085567" objecttolerance="10.0" pagecolor="#ffffff" showgrid="false">
	</sodipodi:namedview>
<defs>
	
		<inkscape:perspective  id="perspective11" inkscape:persp3d-origin="400 : 333.33333 : 1" inkscape:vp_x="0 : 500 : 1" inkscape:vp_y="0 : 1000 : 0" inkscape:vp_z="800 : 500 : 1" sodipodi:type="inkscape:persp3d">
		</inkscape:perspective>
</defs>
<g>
	<g>
		<path class="st0" d="M112.4,175.1c-0.9-2.3,0.5-5.4,0.5-5.4c1.7-0.5,4.9-0.2,5.8,2c1,2.4,0,4.4-2.7,6.1
			C115.9,177.7,114.2,177.1,112.4,175.1z"/>
		<polygon class="st0" points="193.5,313.6 176.8,326.9 176.7,189.1 193.5,189.1 		"/>
		<path class="st0" d="M204.3,301.5l0-112.4H218l0.1,85.8C215.5,283,211.2,291.9,204.3,301.5z"/>
		<polygon class="st0" points="149.2,314.8 166.2,328.2 166.2,189.1 149.2,189.1 		"/>
		<path class="st0" d="M139.7,305.4l-0.1-116.3h-15.1v91.6C125.1,286.8,136.2,302.5,139.7,305.4z"/>
		<path class="st1" d="M170.6,345.9c-63.4,0-115.1-51.6-115.1-115.1c0-63.4,51.6-115,115.1-115c63.4,0,115,51.6,115,115
			C285.7,294.2,234.1,345.9,170.6,345.9v4.1c65.7,0,119.1-53.4,119.1-119.1c0-65.7-53.4-119.1-119.1-119.1
			c-65.7,0-119.1,53.4-119.1,119.1c0,65.7,53.4,119.1,119.1,119.1V345.9z"/>
		<path class="st1" d="M170.6,391c-88.4,0-160.2-71.9-160.2-160.2S82.3,70.6,170.6,70.6c88.4,0,160.2,71.9,160.2,160.2
			S259,391,170.6,391v5.3c91.3,0,165.5-74.2,165.5-165.5c0-91.3-74.2-165.5-165.5-165.5C79.4,65.3,5.1,139.5,5.1,230.8
			c0,91.3,74.2,165.5,165.5,165.5V391z"/>
		<path class="st0" d="M34.2,277.7c3.6,3.5,5.4,6,7.4,10.6c1.8,4.1,2.1,6.8,2.4,11.3l8.2-3.6c-3-3.4-4.7-5.4-6.6-9.6
			c-2-4.6-2.8-7.5-3.1-12.5L34.2,277.7z"/>
		<path class="st0" d="M33.7,295.8c3.5-3.6,5.9-5.5,10.6-7.4c4.2-1.7,6.8-2.1,11.3-2.4l-3.6-8.2c-3.3,3-5.5,4.7-9.6,6.5
			c-4.6,2.1-7.5,2.7-12.5,3.1L33.7,295.8z"/>
		<path class="st0" d="M306.7,277.7c-3.6,3.5-5.5,6-7.4,10.6c-1.8,4.2-2.2,6.8-2.4,11.3l-8.2-3.6c3-3.4,4.8-5.4,6.5-9.6
			c2-4.6,2.8-7.5,3.1-12.5L306.7,277.7z"/>
		<path class="st0" d="M307.3,295.8c-3.5-3.6-5.9-5.5-10.6-7.4c-4.2-1.7-6.8-2.1-11.3-2.4l3.6-8.2c3.3,3.1,5.5,4.7,9.6,6.5
			c4.6,2.1,7.5,2.7,12.5,3.1L307.3,295.8z"/>
		<path class="st0" d="M106,345.5c2.2-1.2,3.2-0.1,3.7-0.8c0.4-0.5-0.1-0.7-0.7-1.2c-0.8-0.6-1.7-1.1-2.5-1.8
			c-0.8-0.6-1.5-1.4-2.4-2c-0.3-0.3-1.1-1-1.5-0.4c-0.8,1.1,2.9,2.2,0.7,5c-0.4,0.5-1.2,1.5-3.7,2.8l-11,6.1
			c-0.3,0.1-0.7,0.5-0.9,0.3c-0.2-0.1,0-0.7,0.1-0.9l3.8-12.5c0.7-2.4,1.5-4.1,2.2-5c1-1.3,2.3,0.5,3-0.3c0.4-0.5,0.2-0.6-0.7-1.3
			c-0.5-0.3-1.4-0.9-3.2-2.3c-1-0.8-1.8-1.6-2.8-2.4c-0.4-0.3-1.1-1.3-1.7-0.5c-0.2,0.2,0.1,0.7,0.1,0.8c0.9,1.2,1.1,1.9,0.6,3.4
			l-6.5,23c-0.5,1.7-0.4,2.2-0.1,2.4c0.3,0.2,0.6,0.2,1.5-0.4L106,345.5z"/>
		<path class="st0" d="M134.7,357.4c0.7-2.8,2.9-0.8,3.2-2.2c0.1-0.4-0.1-0.5-0.8-0.7c-0.6-0.1-1-0.1-4-0.8c-1.3-0.3-3.3-1-4.7-1.3
			c-0.7-0.2-1.2,0-1.3,0.3c-0.3,1.3,3.9,1.3,3.1,4.4l-4.4,17.5c-1.1,4.5-3.3,1.8-3.7,3.5c-0.1,0.2,0.1,0.5,0.6,0.6
			c1.9,0.5,3.4,0.7,4.5,1c1.8,0.4,3.8,1.1,9.1,2.4c2.9,0.7,5.7-1.8,6.4-4.7c0.2-0.7,0-0.9-0.2-0.9c-1.3-0.3-2.1,4.6-10.7,2.5
			c-2.5-0.6-2.1-1.9-1.5-4.2L134.7,357.4z"/>
		<path class="st0" d="M155.6,361.8c0.2-2.6,0.3-2.6,4.7-2.3c7,0.5,3.8,4.7,5.5,4.8c0.8,0.1,0.7-1.2,0.7-1.7l0.1-3.8
			c0-0.3-0.2-0.7-0.7-0.8c-3.2-0.2-5.7-0.2-8.2-0.4c-5.5-0.4-8.1-0.7-9.6-0.8c-0.5,0-0.8,0.3-0.8,0.6c-0.1,1.5,4,0.6,3.8,4
			l-1.2,17.8c-0.3,4.6-2.9,2.4-3,4.1c0,0.2,0.2,0.4,0.7,0.5c2,0.1,3.5,0.1,4.6,0.2c1.8,0.1,4,0.4,9.4,0.8c3,0.2,5.3-2.8,5.5-5.7
			c0.1-0.7-0.2-0.8-0.3-0.9c-1.4-0.1-1.2,4.9-10.2,4.3c-2.6-0.2-2.4-1.5-2.2-3.9l0.3-4.9c0.2-2.2,0-2.7,1.7-2.6l2.7,0.2
			c3.7,0.3,2.5,4.2,3.6,4.3c0.9,0.1,0.7-1.3,0.7-1.8l0.2-6.8c0-1-0.4-1-0.6-1c-0.7-0.1-1.1,3.4-4.2,3.2l-2.3-0.2
			c-1.6-0.1-1.5-0.4-1.4-2L155.6,361.8z"/>
		<path class="st0" d="M174.9,380.1c0.3,3.9-3.2,3.5-3,5c0.1,0.6,0.8,0.4,1.2,0.4c1-0.1,1.9-0.3,3.1-0.4c1.3-0.1,2.5-0.1,4.3-0.2
			c0.5,0,1.4-0.1,1.3-0.6c-0.2-1.8-4.5,1.2-5.2-6.1l-1.1-12.9c0-0.3,0-0.6,0.2-0.6c0.2,0,0.4,0.2,0.7,0.4l19.1,18.2
			c0.3,0.3,0.5,0.5,1,0.4c0.4,0,0.4-0.3,0.3-1.2l-1.9-21.3c-0.3-4,2.8-3.3,2.7-4.5c0-0.1,0-0.5-0.7-0.4c-0.3,0-1.6,0.3-3.8,0.5
			c-2.5,0.2-3.5,0.2-4.1,0.2c-0.5,0-0.5,0.4-0.5,0.7c0.1,1.2,4.4,0.2,4.7,3.6l1.1,12.6c0.1,0.9,0.1,1.4-0.2,1.4
			c-0.2,0-0.7-0.4-1.2-0.9l-15.9-15.4c-0.7-0.7-0.3-1-1.5-0.9c-1.9,0.2-2.8,0.4-3.8,0.5c-0.7,0.1-1.3,0-2,0c-0.4,0-0.6,0.4-0.6,0.7
			c0.2,1.8,4-1,4.6,6.3L174.9,380.1z"/>
		<path class="st0" d="M219.6,350.9c-0.1-0.2-0.3-0.1-0.5-0.1c-0.5,0.1-0.2,1.4-0.8,1.6c-1,0.3-4.4-1.1-8.6,0.2
			c-8.7,2.7-9.8,11.8-7.9,17.9c0.9,2.9,5.3,11.7,15.4,8.6c7.4-2.2,9.3-8.9,8.9-10.3c-0.1-0.2-0.4-0.3-0.6-0.3
			c-0.9,0.3-1.8,5.8-7.1,7.4c-6.6,2-11.6-4.3-13.1-9.5c-1.5-4.9-0.2-10.8,4.8-12.4c4-1.2,8,1,10.8,4c0.4,0.4,0.9,1.1,1.4,0.9
			c0.6-0.2,0.2-1,0.1-1.3L219.6,350.9z"/>
		<path class="st0" d="M230,348.6c-1.7-3.2,1.3-3.3,0.7-4.4c-0.2-0.4-0.4-0.4-1.4,0.1c-1.8,1-2.9,1.7-4,2.3
			c-1.1,0.6-2.4,1.1-3.7,1.8c-0.3,0.2-1.1,0.5-0.8,1c0.6,1.2,3.7-1.7,5.4,1.4l8.6,16.1c1.7,3.2-1.1,3.5-0.4,4.7
			c0.1,0.2,0.3,0.4,0.6,0.2c0.8-0.4,2.1-1.3,3.5-2c2.5-1.3,3.7-1.8,4.9-2.4c0.7-0.4,0.9-0.7,0.7-1c-0.6-1.1-3.3,2.4-5.5-1.8
			L230,348.6z"/>
		<path class="st0" d="M23.2,215.4c-2.2-1-1.8-2.3-2.7-2.4c-0.6-0.1-0.6,0.4-0.6,1c-0.1,0.9,0,1.7-0.1,2.6c-0.1,0.9-0.3,1.7-0.4,2.6
			c0,0.4-0.2,1.2,0.5,1.3c1.3,0.1,0.2-3.1,3.8-2.7c0.6,0.1,1.9,0.3,4.4,1.4l11.1,5.3c0.3,0.1,0.8,0.3,0.8,0.5c0,0.2-0.6,0.3-0.8,0.3
			l-12.6,2.7c-2.4,0.5-4.2,0.7-5.4,0.6c-1.6-0.2-0.8-1.9-1.9-2c-0.6-0.1-0.6,0.1-0.7,1.1c0,0.5,0,1.4-0.2,3.3
			c-0.1,1-0.4,2.1-0.5,3.1c0,0.5-0.4,1.4,0.5,1.5c0.3,0,0.5-0.3,0.6-0.4c0.5-1.2,1-1.6,2.5-2l22.9-5.4c1.7-0.4,2.1-0.7,2.1-1
			c0-0.3-0.2-0.5-1.1-0.9L23.2,215.4z"/>
		<path class="st0" d="M41.3,212.9c3.8,0.9,2.5,3.6,3.9,3.9c0.6,0.1,0.6-0.5,0.7-0.8c0.2-0.8,0.2-1.6,0.4-2.6c0.2-1,0.6-2,1-3.5
			c0.1-0.4,0.3-1.1-0.2-1.2c-1.8-0.4-0.1,4-7.2,2.3l-12.6-2.9c-0.3-0.1-0.6-0.2-0.5-0.4c0-0.1,0.3-0.3,0.6-0.4l22.6-9.8
			c0.3-0.1,0.6-0.2,0.7-0.7c0.1-0.4-0.2-0.4-1-0.6l-20.8-4.8c-3.9-0.9-2.4-3.2-3.5-3.5c-0.1,0-0.5-0.1-0.6,0.5
			c-0.1,0.3-0.2,1.3-0.6,3.2c-0.5,2-0.8,2.9-0.9,3.3c-0.1,0.4,0.3,0.6,0.5,0.6c1.2,0.3,1.4-3.5,4.8-2.7l12.3,2.9
			c0.9,0.2,1.4,0.4,1.3,0.6c0,0.2-0.6,0.4-1.2,0.7l-19.1,8.1c-0.8,0.4-1,0-1.2,0.9c-0.4,1.6-0.4,2.4-0.6,3.1
			c-0.1,0.6-0.4,1.1-0.5,1.6c-0.1,0.4,0.2,0.6,0.5,0.6c1.8,0.4,0.1-3.5,7.3-1.8L41.3,212.9z"/>
		<path class="st0" d="M31.5,181c-3.4-1.1-1.4-2.9-2.7-3.3c-0.4-0.1-0.6,0-0.8,0.8c-0.5,1.7-0.7,2.7-1.1,3.8c-0.3,1-0.8,2.1-1.2,3.2
			c-0.1,0.3-0.4,0.9,0.2,1.1c1.3,0.4,1.3-3.2,4.6-2.1l17.4,5.6c3.4,1.1,1.8,2.9,3.1,3.3c0.2,0.1,0.5,0.1,0.5-0.2
			c0.2-0.8,0.5-2,0.9-3.3c0.7-2.3,1.2-3.3,1.6-4.4c0.2-0.7,0.1-1-0.2-1.1c-1.2-0.4-0.5,3.4-5,2L31.5,181z"/>
		<path class="st0" d="M40,159.3c-1.7-1.7-1-2.7-1.8-3.1c-0.6-0.3-0.7,0.2-0.9,0.8c-0.3,0.8-0.6,1.6-0.9,2.4
			c-0.4,0.8-0.8,1.5-1.2,2.3c-0.1,0.3-0.6,1.1,0.1,1.4c1.2,0.5,1.2-2.8,4.4-1.4c0.6,0.2,1.8,0.8,3.7,2.7l8.9,8.5
			c0.2,0.2,0.6,0.5,0.6,0.7c-0.1,0.2-0.6,0.1-0.9,0.1l-12.8-1.4c-2.4-0.2-4.2-0.6-5.3-1.1c-1.5-0.6-0.2-2.1-1.1-2.5
			c-0.6-0.3-0.6-0.1-1,0.8c-0.2,0.4-0.4,1.3-1.2,3.1c-0.4,0.9-1,1.8-1.4,2.7c-0.2,0.4-0.8,1.2,0,1.5c0.2,0.1,0.6-0.2,0.7-0.2
			c0.9-1,1.4-1.2,3-1.1l23.3,2.1c1.7,0.2,2.2,0,2.3-0.3c0.1-0.3,0-0.5-0.8-1.2L40,159.3z"/>
		<path class="st0" d="M46.4,151.4c-2.2-1.4-2.2-1.6-0.2-4.6c3.2-4.9,5.6-0.5,6.4-1.7c0.4-0.6-0.8-1.1-1.2-1.4l-3.2-2
			c-0.3-0.2-0.7-0.2-0.9,0.1c-1.5,2.2-2.5,4.1-3.6,5.9c-2.5,3.9-3.9,5.7-4.5,6.7c-0.2,0.4-0.1,0.7,0.2,0.9c1.3,0.8,2.1-2.7,5-0.9
			l14.9,9.7c3.9,2.5,0.9,3.4,2.4,4.3c0.2,0.1,0.5,0.1,0.7-0.3c0.9-1.4,1.5-2.6,2-3.3c0.8-1.3,2-2.7,4.5-6.6c1.4-2.1-0.3-5.3-2.8-6.9
			c-0.6-0.4-0.8-0.3-0.9-0.2c-0.6,1,3.8,3.3-0.3,9.7c-1.2,1.8-2.3,1-4.3-0.3l-4.1-2.7c-1.9-1.2-2.3-1.3-1.5-2.5l1.2-1.9
			c1.7-2.7,4.6,0.3,5.2-0.6c0.4-0.6-0.8-1.2-1.3-1.5l-5.8-3.5c-0.9-0.5-1-0.2-1.1,0c-0.3,0.5,2.6,2.5,1.1,4.7l-1,1.6
			c-0.7,1.1-0.9,0.9-2.3,0.1L46.4,151.4z"/>
		<path class="st0" d="M84.3,136.8c0.7,0.6,0.9,0.9,1.6,0.5c1.7-0.8,3.4-1.1,4.9-2.2c3.1-2.6,3-7-0.2-10.8c-3.1-3.7-5.7-3.7-9.3-2.9
			c-4.6,0.9-6.2,1.6-7.8-0.4c-1.6-2-1.5-3.9,0-5.2c4-3.4,8.9,1.8,9.4,1.3c0.5-0.4,0.3-0.8-0.3-1.4l-3.5-3.7
			c-0.6-0.6-0.9-1.1-1.3-0.8c-0.3,0.3-0.5,1.2-0.8,1.5c-0.7,0.6-2.6,0.3-4.5,1.9c-2.7,2.3-2.5,6.3,0.3,9.7c2.6,3.1,4.9,3,7.8,2.5
			c5.5-1.1,7.3-1.9,9.3,0.5c2,2.3,1.7,4.9-0.1,6.4c-2.6,2.2-6.3,0.7-9.4-1.4c-0.4-0.3-0.7-0.5-1-0.2c-0.6,0.5,0.4,1.1,0.8,1.5
			L84.3,136.8z"/>
		<path class="st0" d="M88.3,108c-2.1-3,0.6-3.1-0.2-4.2c-0.3-0.4-0.4-0.4-1.2,0.2c-1.4,1-2.2,1.7-3.1,2.4c-0.9,0.6-1.9,1.2-2.9,1.9
			c-0.2,0.2-0.9,0.5-0.5,1c0.8,1.1,3-1.8,5,1.1l10.5,15c2.1,3-0.3,3.4,0.5,4.5c0.1,0.2,0.3,0.3,0.5,0.2c0.6-0.5,1.6-1.3,2.7-2.1
			c1.9-1.4,3-1.9,3.9-2.5c0.6-0.4,0.7-0.7,0.5-1c-0.7-1-2.5,2.4-5.2-1.4L88.3,108z"/>
		<path class="st0" d="M194.1,85c0.3-1.7,0.9-2.4,2.3-2.1c4.6,0.8,3.9,6.3,3.7,7.3c-0.2,1-1.2,5.2-4.8,4.5c-0.7-0.1-1.1-0.4-1.4-0.5
			c-0.4-0.1-0.5,0.4-0.5,0.6c0,0.2,0,1.1,2.9,1.6c3.6,0.6,6.9-1.7,7.7-6.4c1-5.5-2.4-8-6.3-8.6c-2.1-0.3-4.3-0.6-4.7-0.7
			c-2.3-0.4-3.9-0.8-4.1-0.9c-0.7-0.1-0.9,0.3-1,0.6c-0.2,1.4,3.1,0.4,2.4,4.4l-2.9,16.5c-0.8,4.7-3.1,3.4-3.3,4.5
			c-0.1,0.6,0.4,0.7,0.5,0.7c0.2,0,2.5,0.3,3.7,0.5c0.7,0.1,2,0.5,4,0.9c0.4,0.1,0.7,0.2,0.8-0.4c0.2-1.3-3-0.4-2.2-5.1L194.1,85z"
			/>
		<path class="st0" d="M219.4,86.6c-6.9-2.3-12.8,2.3-15.5,10.2c-2.5,7.3-0.3,13.5,5.5,15.5c9.2,3.2,14-5.1,15.7-10.1
			C227.7,94.6,225,88.5,219.4,86.6z M221.1,102.4c-2.1,6-5.3,10.2-10.3,8.6c-5.2-1.7-4.4-9.8-2.6-15.1c1.8-5.2,4.9-9.7,9.8-8.1
			C221.8,89.1,223.8,94.5,221.1,102.4z"/>
		<path class="st0" d="M236.2,97.6c1.3-2.6,2.6-0.3,3.2-1.6c0.2-0.4,0.1-0.5-0.5-0.8c-0.4-0.2-0.8-0.3-3.1-1.4c-1-0.5-2.5-1.5-3.6-2
			c-0.6-0.3-1-0.2-1.2,0.1c-0.6,1.2,2.9,1.8,1.5,4.7l-8.2,16c-2.1,4.1-3.2,1.3-4,2.8c-0.1,0.2,0,0.5,0.3,0.6
			c1.5,0.8,2.7,1.2,3.5,1.6c1.4,0.7,2.9,1.7,7,3.8c2.2,1.1,5.2-0.8,6.6-3.5c0.3-0.6,0.2-0.8,0.1-0.9c-1-0.5-2.9,4.1-9.6,0.7
			c-2-1-1.2-2.2-0.2-4.3L236.2,97.6z"/>
		<path class="st0" d="M252.7,107.9c2-3,3.1-0.6,3.9-1.7c0.3-0.4,0.2-0.5-0.6-1c-1.4-1-2.4-1.5-3.3-2.1c-0.9-0.6-1.8-1.4-2.8-2
			c-0.2-0.2-0.8-0.7-1.2-0.1c-0.7,1.1,2.7,2.1,0.8,5l-10.2,15.1c-2,3-3.3,0.9-4,2.1c-0.1,0.2-0.2,0.4,0,0.6c0.7,0.4,1.8,1,2.9,1.8
			c2,1.3,2.8,2.1,3.8,2.7c0.6,0.4,0.9,0.4,1.1,0.1c0.7-1-3.1-1.5-0.5-5.3L252.7,107.9z"/>
		<path class="st0" d="M251.5,129.2c-2.8,3.6-4.4,0-5.3,1.2c-0.5,0.7-0.1,0.9,0.3,1.3c1,0.7,1.9,1.2,3.5,2.5c1.6,1.3,2.3,2,3.3,2.7
			c0.7,0.5,1.1,1,1.7,0.3c0.7-0.8-3.1-2.4-0.2-6.1l10.6-13.5c1.1-1.4,1.5-1.4,2.5-0.6l2,1.6c2.9,2-0.5,4.8,0.4,5.5
			c0.6,0.5,1.3-0.9,1.5-1.3l1.9-3c0.2-0.3,0.5-0.7,0.2-1c-2.2-1.7-3.9-2.9-7.4-5.6c-3.5-2.7-5-4.1-7.3-5.9c-0.4-0.3-0.7,0.1-0.9,0.4
			l-3.5,3.7c-0.3,0.4-1,0.9-0.5,1.3c1.1,0.8,3.4-3.6,6.1-1.5l2,1.6c1,0.8,1.1,1.1,0,2.5L251.5,129.2z"/>
		<path class="st0" d="M277.7,129.5c1.9-1.8,2-1.7,4.5,1c4,4.3-0.9,5.6,0.1,6.6c0.5,0.5,1.3-0.5,1.6-0.8l2.7-2.7
			c0.3-0.2,0.4-0.7,0.1-0.9c-1.8-2-3.4-3.4-4.8-5c-3.2-3.4-4.6-5.1-5.4-6c-0.3-0.3-0.7-0.3-0.9,0c-1.1,1,2.1,2.7-0.4,5.1l-13,12.1
			c-3.4,3.2-3.5,0.1-4.7,1.3c-0.2,0.2-0.2,0.4,0.1,0.7c1.1,1.2,2.1,2.1,2.8,2.7c1,1.1,2.2,2.6,5.3,5.9c1.7,1.8,5.2,1,7.4-1
			c0.5-0.5,0.5-0.7,0.4-0.8c-0.8-0.8-4.1,2.9-9.3-2.7c-1.5-1.6-0.4-2.4,1.3-4.1l3.6-3.3c1.6-1.5,1.9-1.9,2.8-0.9l1.5,1.6
			c2.2,2.3-1.4,4.4-0.7,5.2c0.5,0.5,1.4-0.5,1.7-0.9l4.8-4.8c0.7-0.7,0.4-0.9,0.3-1.1c-0.4-0.4-3,1.9-4.8,0l-1.3-1.4
			c-0.9-1-0.7-1.1,0.5-2.3L277.7,129.5z"/>
		<path class="st0" d="M300.3,153.1c0.2-0.1,0.1-0.3,0-0.4c-0.2-0.4-1.3,0.3-1.6-0.2c-0.5-0.8,0.1-4-2-7c-4.3-6.4-13-4.3-18.3-0.7
			c-2.5,1.7-9.8,8.3-4.8,15.7c3.6,5.4,10.2,4.8,11.5,4c0.2-0.1,0.2-0.5,0.1-0.6c-0.4-0.7-5.7,0.4-8.4-3.5c-3.2-4.8,1.6-11,6.1-14
			c4.2-2.9,10-3.8,12.5-0.1c2,2.9,0.7,7-1.5,10.3c-0.3,0.5-0.8,1.1-0.6,1.5c0.3,0.4,0.9-0.2,1.2-0.4L300.3,153.1z"/>
		<path class="st0" d="M285,168.2c-3.5,1.6-4.1-1.3-5.5-0.7c-0.6,0.3-0.2,0.7,0,1c0.3,0.7,0.8,1.4,1.2,2.3c0.5,1,0.8,2,1.4,3.3
			c0.2,0.4,0.5,1.1,0.9,0.8c1.6-0.8-2.4-3.2,4.2-6.3l11.7-5.5c0.3-0.1,0.6-0.2,0.7,0c0.1,0.1,0,0.4-0.2,0.7l-11.7,21.6
			c-0.2,0.3-0.3,0.6-0.1,0.9c0.2,0.3,0.4,0.2,1.2-0.2l19.4-9c3.6-1.7,3.9,1,4.9,0.6c0.1-0.1,0.4-0.2,0.2-0.7
			c-0.1-0.2-0.7-1.1-1.5-2.9c-0.9-1.9-1.1-2.8-1.3-3.2c-0.2-0.4-0.6-0.3-0.8-0.2c-1.1,0.5,1,3.6-2.1,5.1l-11.5,5.4
			c-0.9,0.4-1.3,0.5-1.4,0.4c-0.1-0.2,0.2-0.7,0.5-1.3l10-18.2c0.4-0.8,0.8-0.6,0.4-1.5c-0.7-1.5-1.2-2.1-1.5-2.8
			c-0.2-0.5-0.3-1.1-0.6-1.6c-0.2-0.3-0.5-0.3-0.8-0.2c-1.6,0.8,2,2.8-4.6,5.9L285,168.2z"/>
		<path class="st0" d="M312.2,188.2c3.4-1.1,2.8,1.5,4.1,1.1c0.4-0.1,0.5-0.3,0.2-1.2c-0.5-1.7-1-2.6-1.4-3.7
			c-0.3-1-0.5-2.2-0.9-3.3c-0.1-0.3-0.2-1-0.8-0.8c-1.3,0.4,0.8,3.4-2.5,4.4l-17.4,5.6c-3.4,1.1-3.2-1.3-4.4-0.9
			c-0.2,0.1-0.4,0.2-0.3,0.5c0.2,0.7,0.8,1.9,1.2,3.2c0.7,2.3,0.9,3.4,1.3,4.4c0.2,0.7,0.4,0.9,0.8,0.8c1.1-0.4-1.6-3.1,2.9-4.5
			L312.2,188.2z"/>
		<path class="st0" d="M320.3,210.9c0.2,0,0.2-0.3,0.2-0.4c-0.1-0.4-1.3-0.2-1.4-0.8c-0.2-0.9,1.7-3.6,1.1-7.2
			c-1.3-7.5-10.2-9.2-16.5-8.1c-3,0.5-12.3,3.6-10.8,12.3c1.1,6.4,7.3,8.6,8.8,8.3c0.2,0,0.4-0.3,0.3-0.5c-0.1-0.8-5.4-2-6.2-6.6
			c-1-5.7,6-9.4,11.3-10.4c5-0.9,10.7,0.6,11.5,5c0.6,3.5-2.2,6.7-5.5,8.8c-0.5,0.3-1.2,0.6-1.1,1.1c0.1,0.5,0.9,0.2,1.3,0.1
			L320.3,210.9z"/>
		<path class="st0" d="M102.6,306.7c-1,0.7-1,0.7-2.2-0.8c-1.9-2.5,0.5-2.7,0.1-3.3c-0.2-0.3-0.6,0.1-0.8,0.3l-1.4,1.1
			c-0.1,0.1-0.2,0.3-0.1,0.5c0.8,1.1,1.6,2,2.3,2.9c1.5,2,2.1,2.9,2.5,3.4c0.1,0.2,0.3,0.2,0.5,0.1c0.6-0.4-1-1.5,0.3-2.5l6.6-5
			c1.7-1.3,1.7,0.2,2.3-0.2c0.1-0.1,0.1-0.2,0-0.4c-0.5-0.7-1-1.2-1.3-1.6c-0.5-0.6-1-1.5-2.5-3.4c-0.8-1-2.5-0.9-3.6-0.1
			c-0.3,0.2-0.2,0.3-0.2,0.4c0.4,0.5,2.1-1.1,4.5,2.1c0.7,0.9,0.1,1.2-0.7,1.9l-1.8,1.4c-0.8,0.6-1,0.8-1.4,0.2l-0.7-0.9
			c-1-1.3,0.8-2.1,0.5-2.5c-0.2-0.3-0.7,0.2-0.9,0.3l-2.5,2c-0.4,0.3-0.2,0.4-0.2,0.5c0.2,0.3,1.5-0.7,2.4,0.4l0.6,0.8
			c0.4,0.5,0.3,0.6-0.3,1.1L102.6,306.7z"/>
		<path class="st0" d="M105.6,295.8c1.2,0,1.7,0.7,2,0.5c0.2-0.2,0-0.3-0.2-0.6c-0.3-0.4-0.7-0.8-1-1.2c-0.3-0.4-0.5-0.8-1-1.4
			c-0.2-0.2-0.3-0.3-0.4-0.2c-0.5,0.4,0.8,1.2,0,1.8c-0.2,0.1-0.7,0.3-1.3,0.3l-2.3,0.1c-0.5,0-0.8,0.1-0.9,0c0-0.1,0.1-0.3,0.2-0.8
			l1-2.5c0.2-0.4,0.3-0.7,0.6-0.9c0.5-0.4,0.9,0.4,1.3,0.1c0.2-0.2,0.1-0.3-0.1-0.5c-0.3-0.4-0.6-0.8-1.2-1.4
			c-0.5-0.6-0.6-1-0.9-1.3c-0.4-0.5-0.5-0.6-0.7-0.5c-0.3,0.2,0.3,0.8-0.4,2.6l-1.6,4.3c-0.2,0.5-0.2,0.7-0.5,0.9
			c-0.2,0.1-0.6,0.1-1,0.1l-3.3,0.1c-2.1,0.1-2.4-0.9-2.7-0.7c-0.2,0.1-0.2,0.2,0,0.5c0.5,0.6,0.8,1,1.1,1.3
			c0.3,0.4,0.5,0.8,0.9,1.4c0,0,0.2,0.3,0.4,0.1c0.3-0.3-0.6-1.1,0.1-1.6c0.3-0.2,0.5-0.3,1.4-0.3l2.3-0.1c0.2,0,0.5-0.1,0.6,0
			c0.1,0.1,0,0.3-0.1,0.4l-1.3,2.9c-0.1,0.2-0.2,0.4-0.4,0.5c-0.5,0.4-1-0.4-1.3-0.1c-0.1,0.1-0.2,0.1,0,0.4
			c0.3,0.3,0.5,0.6,1.3,1.6c0.7,1,1,1.4,1.2,1.7c0.2,0.2,0.3,0.2,0.4,0.1c0.5-0.4-0.6-0.6,0.6-3.5l1.3-3.1c0.1-0.3,0.3-0.9,0.5-1
			c0.1-0.1,0.5-0.1,0.8-0.1L105.6,295.8z"/>
		<path class="st0" d="M153.8,133c2,0,3.6,1.6,3.6,3.6c0,2-1.6,3.6-3.6,3.6c-2,0-3.6-1.6-3.6-3.6C150.2,134.6,151.8,133,153.8,133z"
			/>
		<path class="st0" d="M121.4,140.2c2,0,3.6,1.6,3.6,3.6c0,2-1.6,3.6-3.6,3.6c-2,0-3.6-1.6-3.6-3.6
			C117.8,141.8,119.4,140.2,121.4,140.2z"/>
		<path class="st1" d="M227.9,153.8c-0.9,2.1-1.8,2.4-5.2,1.8c-2.8-0.5-2.8-4.2-2.6-5.8l-4.8-1.4c-2.1,4.1-4.5,4.3-6.4,4.1
			c-3.4-0.5-3.6-6.2-3.4-9.5l-4.9-1c-2.4,6.7-3.5,7.8-6.5,8.3c-1.7,0.3-2.9-0.8-3.6-1.4c-1-1.1-1.7-2.7-1.8-4.2
			c0.1-0.7,0.2-1.5,0.2-2.2l-5-0.8c-0.2,0.8-0.3,1.7-0.3,2.6c-0.4,2-1.4,3.7-2.5,4.5c-0.8,0.6-1.7,0.8-2.6,0.5
			c-2.4-0.6-5.6-2.6-5.6-12h-5.1c0,0.3,0,0.6,0,0.8h0c0,6.8-1.7,10.2-5.6,11.2c-1,0.3-1.9,0-2.8-0.7c-1.2-1-2.2-2.7-2.5-4.6
			c0-0.7,0-1.5-0.2-2.2l-5,0.4c0,0.7,0,1.4,0.1,2.1c-0.1,1.8-0.9,3.6-2,4.7c-1,1-2,1.3-3.2,1.1c-3-0.6-4.6-1.9-6.9-8.6l-4.9,1
			c0.2,3.5,0.1,9.5-3.1,9.9c-1.8,0.2-3.9-0.1-6.3-4.8l-4.8,1.4c0.3,3.2-0.9,6.3-2.7,6.8c-3.2,0.8-3.2,0.8-4.7-1.8l-0.4-0.7l-4.4,2.6
			l0.4,0.7c2.3,4,4.1,5.7,10.3,4.2c2.8-0.7,4.7-2.8,5.7-5.5c2.2,1.9,4.7,2.6,7.6,2.3c2.5-0.3,5.3-1.8,6.6-6.1c1.6,2,3.7,3.2,6.7,3.7
			c2.8,0.5,5.5-0.4,7.7-2.5c0.5-0.5,0.9-1,1.3-1.6c0.5,0.6,1,1.1,1.5,1.5c2.1,1.7,4.7,2.3,7.3,1.6c3.4-0.9,5.5-2.8,6.9-5
			c1.6,2.6,3.8,4.2,6.7,5c2.5,0.7,4.9,0.2,7-1.3c0.6-0.5,1.2-1.1,1.8-1.7c0.3,0.4,0.6,0.7,0.9,1.1c2.2,2.5,5.2,3.5,8.2,3
			c3-0.5,4.9-1.7,6.4-3.6c1.6,4.3,4.6,5.5,6.8,5.8c2.2,0.3,5,0.1,7.6-1.8c1.1,2.6,3.2,4.4,6,4.9c2.6,0.5,8.1,1.4,10.8-4.8
			L227.9,153.8z"/>
		<path class="st0" d="M186.7,133.2c2,0,3.6,1.6,3.6,3.6c0,2-1.6,3.6-3.6,3.6c-2,0-3.6-1.6-3.6-3.6
			C183.1,134.8,184.7,133.2,186.7,133.2z"/>
		<path class="st0" d="M219.5,139.8c2,0,3.6,1.6,3.6,3.6c0,2-1.6,3.6-3.6,3.6c-2,0-3.6-1.6-3.6-3.6
			C215.9,141.4,217.5,139.8,219.5,139.8z"/>
		<polygon class="st0" points="121.5,171.5 125.3,167.9 130,169.6 126.4,173.3 		"/>
		<path class="st1" d="M113.1,168.7c21.7-6.9,34.6-8.9,57.6-8.9c23.2,0,36.2,2,57.8,8.9c0,0,1.8,0.5,2.5-1.7c0.7-2.1-1-2.9-1-2.9
			c-21.9-7-35.7-9.1-59.2-9.1c-23.3,0-37.1,2.1-59.1,9.1c0,0-1.7,0.7-1.1,2.9C111.2,169.1,113.1,168.7,113.1,168.7z"/>
		<path class="st1" d="M117.7,182.7c2-0.4,4-0.9,6.1-1.4c10.8-2.5,24.1-5.5,46.7-5.6c18.6,0,31.3,2.5,47.3,5.7l5.9,1.2
			c0,0,1.8,0.3,2.2-1.9c0.4-2.2-1.3-2.8-1.3-2.8l-5.9-1.2c-16.3-3.3-29.1-5.9-48.2-5.8c-23.1,0-36.7,3.2-47.7,5.7
			c-2.1,0.5-4.1,0.9-6,1.3c0,0-1.7,0.7-1.3,2.8C115.8,182.9,117.7,182.7,117.7,182.7z"/>
		<polygon class="st0" points="150.8,166 155,162.9 159.8,165.4 155.4,168.4 		"/>
		<path class="st0" d="M228.5,174.9c0.9-2.3-0.5-5.4-0.5-5.4c-1.7-0.5-5-0.2-5.8,2c-0.9,2.4,0,4.4,2.7,6.1
			C225,177.5,226.7,176.9,228.5,174.9z"/>
		<polygon class="st0" points="219.6,171.5 215.8,167.9 211.1,169.6 214.7,173.3 		"/>
		<polygon class="st0" points="190.2,166 185.9,162.9 181.1,165.4 185.5,168.4 		"/>
		<path class="st0" d="M207.9,168.7c0.4-2.5-2.4-4.4-6.2-5c-3.8-0.6-7.2,0.3-7.6,2.8c-0.4,2.5,2.3,4.4,6.1,5
			C204.1,172.1,207.5,171.2,207.9,168.7z"/>
		<path class="st0" d="M255.3,181.2c0.7-0.4,1.2-0.4,1.5,0.2c1.3,2.1-1,3.6-1.4,3.9c-0.4,0.2-2.3,1.2-3.3-0.4
			c-0.2-0.3-0.2-0.6-0.3-0.7c-0.1-0.2-0.3-0.1-0.4,0c-0.1,0-0.4,0.3,0.4,1.7c1,1.6,2.9,2.1,5,0.9c2.3-1.4,2.1-3.6,1-5.3
			c-0.6-1-1.2-1.9-1.3-2.1c-0.6-1-1-1.8-1.1-1.9c-0.2-0.3-0.4-0.2-0.5-0.2c-0.6,0.4,0.9,1.4-0.8,2.4L247,184c-2,1.2-2.3-0.1-2.8,0.2
			c-0.3,0.2-0.1,0.4-0.1,0.4c0,0.1,0.7,1.1,1.1,1.6c0.2,0.3,0.5,0.9,1,1.9c0.1,0.2,0.2,0.3,0.4,0.2c0.6-0.3-0.9-1.3,1.1-2.5
			L255.3,181.2z"/>
		<path class="st0" d="M270.3,220.9c0.3,0,0.7-0.1,0.7-0.3c0-0.3-0.6-0.2-0.6-0.6c-0.1-0.4,1-1.9,0.6-4.1c-0.6-4-4.9-5-8-4.6
			c-1.5,0.2-6.1,1.6-5.5,6.2c0.2,1.7,1.3,3.3,2.5,4.7c0.1,0.1,0.2,0.1,0.5,0.1c0.3,0,0.8-0.2,1.5-0.3c2.4-0.3,1.5,0.9,2.3,0.8
			c0.2,0,0.2-0.1,0.2-0.2c-0.1-0.6-0.2-1.1-0.3-1.7c-0.1-0.7-0.1-1.5-0.2-2.2c0-0.3,0-0.8-0.5-0.7c-0.7,0.1,0.8,1.8-2.1,2.2
			c-1.1,0.2-2.6,0.3-3-2.5c-0.4-2.5,2.9-4.1,5.4-4.5c4.7-0.7,6.1,1.2,6.3,2.7c0.6,4.1-3.5,4.7-3.4,5c0.1,0.3,0.1,0.4,0.4,0.3
			L270.3,220.9z"/>
		<path class="st0" d="M268.8,238.6c1.3,0.1,1.3,0.2,1.1,2.1c-0.3,3-2.4,1.6-2.4,2.3c0,0.4,0.6,0.3,0.8,0.4l1.9,0.1
			c0.2,0,0.4-0.1,0.4-0.3c0.1-1.4,0.2-2.5,0.3-3.6c0.2-2.4,0.4-3.5,0.5-4.2c0-0.2-0.1-0.4-0.3-0.4c-0.7-0.1-0.3,1.8-2,1.6l-8.7-0.9
			c-2.3-0.2-1.1-1.3-2-1.4c-0.1,0-0.2,0.1-0.2,0.3c-0.1,0.9-0.1,1.5-0.1,2c-0.1,0.8-0.3,1.7-0.5,4.1c-0.1,1.3,1.3,2.4,2.8,2.5
			c0.3,0,0.4-0.1,0.4-0.1c0.1-0.6-2.4-0.6-2-4.5c0.1-1.1,0.8-1,1.9-0.9l2.4,0.2c1.1,0.1,1.3,0.1,1.2,0.8l-0.1,1.2
			c-0.2,1.6-2.1,1-2.2,1.5c0,0.4,0.6,0.4,0.9,0.4l3.3,0.2c0.5,0,0.5-0.1,0.5-0.3c0-0.3-1.7-0.5-1.5-1.9l0.1-1c0.1-0.7,0.2-0.7,1-0.6
			L268.8,238.6z"/>
		<path class="st0" d="M258.2,244.1c-0.5,0-0.6-0.1-0.8,0.3c-0.4,0.8-1,1.6-1.2,2.5c-0.4,2,1,3.8,3.4,4.3c2.3,0.5,3.3-0.4,4.5-1.9
			c1.5-1.9,1.9-2.7,3.1-2.4c1.2,0.2,1.8,1.1,1.6,2.1c-0.5,2.7-4,2.2-4,2.6c-0.1,0.3,0.1,0.4,0.6,0.5l2.5,0.3
			c0.4,0.1,0.7,0.2,0.7-0.1c0-0.2-0.2-0.6-0.1-0.8c0.1-0.5,0.9-1,1.2-2.3c0.4-1.8-0.9-3.4-3.1-3.8c-1.9-0.4-2.8,0.4-3.8,1.6
			c-1.8,2.3-2.2,3.2-3.8,2.9c-1.5-0.3-2.2-1.4-1.9-2.6c0.3-1.7,2.2-2.4,4.1-2.5c0.2,0,0.4,0,0.5-0.3c0.1-0.4-0.5-0.3-0.7-0.3
			L258.2,244.1z"/>
		<path class="st0" d="M256.5,252.1c-0.5-0.1-0.6-0.1-0.8,0.2c-0.5,0.8-1.2,1.4-1.5,2.4c-0.6,2,0.5,3.9,2.8,4.6
			c2.3,0.7,3.4,0,4.7-1.4c1.7-1.7,2.2-2.4,3.4-2c1.2,0.4,1.7,1.3,1.3,2.3c-0.8,2.6-4.2,1.7-4.4,2.1c-0.1,0.3,0.1,0.4,0.5,0.5
			l2.4,0.6c0.4,0.1,0.7,0.2,0.7,0c0.1-0.2-0.1-0.7,0-0.9c0.1-0.4,1-0.9,1.5-2.1c0.6-1.8-0.5-3.5-2.6-4.1c-1.9-0.6-2.9,0.1-3.9,1.1
			c-2.1,2-2.6,2.9-4.1,2.4c-1.4-0.5-2-1.6-1.6-2.8c0.5-1.7,2.5-2.1,4.3-2c0.2,0,0.4,0,0.5-0.2c0.1-0.4-0.4-0.4-0.7-0.4L256.5,252.1z
			"/>
		<path class="st0" d="M262.3,265.6c1.7,0.6,0.6,1.5,1.2,1.7c0.2,0.1,0.3,0,0.4-0.4c0.3-0.8,0.4-1.4,0.6-1.9
			c0.2-0.5,0.5-1.1,0.7-1.7c0-0.1,0.2-0.5-0.1-0.6c-0.6-0.2-0.7,1.6-2.3,1l-8.4-3.1c-1.7-0.6-0.8-1.5-1.4-1.7c-0.1,0-0.2,0-0.3,0.1
			c-0.1,0.4-0.3,1-0.5,1.7c-0.4,1.2-0.7,1.7-0.9,2.2c-0.1,0.3-0.1,0.5,0.1,0.6c0.6,0.2,0.4-1.8,2.5-1L262.3,265.6z"/>
		<path class="st0" d="M257,265.4c-3.6-1.3-6.7-0.2-7.8,2.8c-1.7,4.8,2.3,7.2,4.7,8.1c3.7,1.4,6.8,0,7.8-3
			C263,269.8,260.8,266.8,257,265.4z M261.1,272.7c-0.7,1.9-3.4,3-7.3,1.6c-2.9-1.1-5-2.8-4.1-5.3c0.9-2.7,4.9-2.3,7.5-1.3
			C259.8,268.5,262,270.2,261.1,272.7z"/>
		<path class="st1" d="M119.9,306.5c-0.5-1.5-0.8-2.5-1.9-4.2c-1.8-3-2.5-3.9-5.6-7.7c-0.2-0.2-0.4-0.5-0.6-0.7l3.1-3.4l0.3-0.4
			l0.7-0.5l-0.1-0.2l0,0l0,0l-1.6-2.4c-1.9-2.8-3.4-5.1-5-8.7c-2.6-5.6-3.6-8.8-5.1-14.4l-0.1,0l0-0.1l-1.9,0.5l-4.7,1.2
			c-7.6-19.6-9.8-36.9-6.4-52.4l10.9,4.7l1.3,0.5l0.4-1.3l5.1-19.4l0.5-0.6l-0.3-0.1l0,0l0,0l-1-0.5l-4.8-2.5l2-9.2l0.7-0.8
			l-1.1-0.7l-21.1-13.5l-0.6,1l-1-0.7c-11.5,16.2-18.1,36.5-18.7,57c-0.6,21.4,5.3,41.9,16.8,59.2l0.6,1l1-0.6l6.7-4.1
			c0.5,1,1.3,2.8,2.1,4.1c0.3,0.6,0.8,1.2,1.2,1.8l-6.1,4l0.7,1l-1,0.6l0.7,1.1c4.2,7.1,13.9,23.6,23.8,20.3c2.9-1,4.7-2.5,6.5-3.9
			c1.1-0.9,2.2-1.9,3.7-2.7l0.8-0.5c0,0-0.3-0.9-0.3-0.9L119.9,306.5z M110.4,291.9c-1.4-1.9-2.8-4-4.1-6.2l5.9,4.1L110.4,291.9z
			 M100.7,267.1l-1,4.1c-0.5-1.2-1-2.3-1.5-3.4L100.7,267.1z M101.6,215l-10-4.3c0.2-0.7,0.4-1.4,0.6-2.1l6.3,0.7l0.7,0.1l0.4-0.5
			l5.4-6.8L101.6,215z M92.9,206.3c2-6,4.9-11.7,8.7-17.1l-3.9,17.7L92.9,206.3z M105.4,197.8l-4.5,5.6l1.6-7.2L105.4,197.8z
			 M81.4,283.9C70.5,267.2,65,247.5,65.6,227c0.5-19.7,6.8-39.1,17.6-54.8l19,12.2c-18.8,23.9-20.1,53.1-4,89.2L81.4,283.9z
			 M90.4,281.2l10-6.1l0.9-0.6l-0.1-0.1l0.1,0l1.5-6.1c1.1,3.6,2.2,6.5,4.1,10.8c1.2,2.6,2.3,4.5,3.5,6.4l-6.8-4.7l0,0.1l-0.2-0.4
			l-1.1,0.7l-8.8,5.7c-0.4-0.5-0.9-1.2-1.2-1.7C91.7,284.1,90.7,282.1,90.4,281.2z M114.5,309.7c-1.7,1.4-3.2,2.7-5.7,3.5
			c-8,2.7-17.4-13.2-20.9-19.2l-0.1-0.2l14.9-9.7c2.3,4.1,5.4,8.8,8,11.9c3.1,3.8,3.6,4.6,5.4,7.5c0.9,1.5,1.2,2.3,1.7,3.7v0
			C116.4,308.1,115.4,308.9,114.5,309.7z M277.7,226.9c-0.5-20.5-7.2-40.8-18.7-57l-1,0.7l-0.6-1l-21.1,13.5l-1.1,0.7l0.7,0.8l2,9.2
			l-4.8,2.5l-1,0.5l-0.1,0v0l-0.3,0.1l0.4,0.6l5.1,19.4l0.4,1.3l1.3-0.5l10.9-4.7c3.4,15.5,1.3,32.9-6.4,52.4l-4.7-1.2l-1.9-0.5
			l0,0.1l-0.1,0c-1.5,5.6-2.5,8.8-5.1,14.4c-1.7,3.7-3.1,5.8-5.1,8.8l-1.6,2.5l0.1,0.1l-0.1,0.1l1,1.1l2.9,3.2
			c-0.2,0.2-0.3,0.4-0.5,0.6c-2.4,3-3,3.6-4.9,5.3l-1.5,1.4c-2.1,1.6-3.3,3.8-3.1,5.5c0.1,1,0.8,1.8,1.8,2.2c2.4,1,3.1,1.2,3.7,1.3
			c0.3,0.1,0.6,0.2,1.2,0.4l0.1,0c0,0,0.1,0,0.1,0l2.5,0.4c3.9,0.6,4.5,0.6,9.4-0.8c9.1-2.7,14.4-14.5,14.6-15.3l-1.2-0.2l0.6-1
			l-4.3-2.6c0.9-1.3,2.2-3.1,3.1-4.6c0.8-1.3,1.7-3.1,2.1-4.1l6.7,4l1,0.6l0.6-1C272.5,268.8,278.3,248.3,277.7,226.9z M238.4,196.3
			l1.6,7.2l-4.5-5.6L238.4,196.3z M239.3,189.2c3.8,5.4,6.7,11.1,8.7,17.1l-4.8,0.6L239.3,189.2z M239.3,215l-3.4-12.8l5.4,6.8
			l0.4,0.5l0.7-0.1l6.3-0.7c0.2,0.7,0.4,1.4,0.6,2.1L239.3,215z M242.6,267.8c-0.5,1.1-0.9,2.3-1.5,3.4l-1-4.1L242.6,267.8z
			 M228.8,290.3l4.5-2.5c-1,1.7-1.9,3-2.9,4.3L228.8,290.3z M249.6,295.4c-1.4,3-6,10.8-12.6,12.7c-4.5,1.3-4.8,1.3-8.3,0.7
			l-2.4-0.4c-0.6-0.2-0.9-0.3-1.3-0.4c-0.5-0.1-1.1-0.3-3.4-1.2c-0.3-0.1-0.3-0.2-0.3-0.3c-0.1-0.7,0.7-2.2,2.3-3.3l0.1,0
			c0,0,0.1-0.1,0.1-0.1l1.5-1.4c1.9-1.8,2.5-2.4,5.1-5.6c2.3-2.8,3.8-4.9,6.1-8.9L249.6,295.4z M248.5,285.4
			c-0.9,1.5-2.2,3.4-3.1,4.6l-8.9-5.4l-1-0.6l0-0.1l0,0l0,0l0,0l-6.1,3.4c1.6-2.4,3-4.6,4.5-8c2-4.3,3.1-7.2,4.1-10.8l1.5,6.1l0.1,0
			l-0.1,0.1l0.9,0.6l10,6.1C250.2,282.1,249.3,284.1,248.5,285.4z M259.5,283.9l-16.8-10.2c16.1-36.1,14.8-65.3-4-89.2l19.1-12.2
			c10.8,15.7,17.1,35.1,17.6,54.8C275.9,247.5,270.4,267.2,259.5,283.9z"/>
		<path class="st0" d="M177.7,165.3c0-2.6-3-4-6.8-4.1c-3.9-0.1-7.1,1.3-7.1,3.9c0,2.6,2.9,4,6.7,4.1
			C174.4,169.2,177.7,167.8,177.7,165.3z"/>
		<path class="st0" d="M132.8,168.7c-0.4-2.5,2.4-4.4,6.2-5c3.8-0.6,7.2,0.3,7.6,2.8c0.4,2.5-2.3,4.4-6.1,5
			C136.6,172.1,133.2,171.2,132.8,168.7z"/>
		<path class="st0" d="M88.3,266.7c1.9-0.9,1.9,1.1,2.6,0.8c0.3-0.2,0.2-0.4,0.1-0.7c-0.3-0.6-0.6-1-1-2c-0.5-1-0.6-1.5-0.9-2
			c-0.2-0.4-0.3-0.7-0.7-0.5c-0.4,0.2,0.9,1.8-1,2.8l-7.2,3.5c-0.8,0.4-0.9,0.3-1.2-0.3l-0.6-1.2c-0.9-1.6,1.1-2,0.8-2.6
			c-0.2-0.4-0.7,0.1-0.9,0.2l-1.4,0.9c-0.2,0.1-0.4,0.2-0.3,0.4c0.7,1.3,1.2,2.3,2.2,4.4c1,2.1,1.4,3.1,2.1,4.4
			c0.1,0.2,0.3,0.1,0.5,0l2.2-0.8c0.2-0.1,0.6-0.2,0.5-0.5c-0.3-0.6-2.2,0.8-3-0.8l-0.6-1.2c-0.3-0.6-0.3-0.8,0.5-1.1L88.3,266.7z"
			/>
		<path class="st0" d="M75.8,258.2c-1.2,0.3-1.2,0.3-1.8-1.6c-0.8-3,1.5-2.3,1.3-3.1c-0.1-0.4-0.6-0.1-0.9,0l-1.7,0.5
			c-0.2,0-0.3,0.2-0.2,0.4c0.4,1.3,0.8,2.4,1.1,3.5c0.7,2.4,0.9,3.5,1.1,4.1c0.1,0.2,0.2,0.3,0.4,0.3c0.7-0.2-0.4-1.8,1.2-2.2l8-2.3
			c2.1-0.6,1.5,0.8,2.3,0.6c0.1,0,0.2-0.1,0.1-0.3c-0.2-0.8-0.5-1.5-0.6-2c-0.2-0.8-0.4-1.7-1.1-4c-0.4-1.3-2-1.8-3.3-1.4
			c-0.3,0.1-0.3,0.2-0.3,0.3c0.2,0.6,2.3-0.3,3.4,3.5c0.3,1.1-0.3,1.2-1.4,1.5l-2.2,0.6c-1,0.3-1.2,0.4-1.4-0.3l-0.3-1.1
			c-0.5-1.6,1.5-1.7,1.3-2.2c-0.1-0.4-0.7-0.1-0.9,0l-3,1c-0.5,0.1-0.4,0.3-0.3,0.4c0.1,0.3,1.7-0.1,2,1.2l0.3,1
			c0.2,0.7,0.1,0.7-0.7,0.9L75.8,258.2z"/>
		<path class="st0" d="M75.4,249.6c2-0.3,3.3-1.8,3-3.6c-0.3-1.6-1.9-2.7-2.3-2.7c-0.2,0-0.2,0.1-0.2,0.2c0,0.3,1.1,0.9,1.2,1.8
			c0.2,1.5-1.5,2.6-3.2,2.9c-1.1,0.2-2.4,0.1-2.6-1.1c-0.1-0.8,0.4-1.2,1.2-1.5c0.1,0,0.3-0.1,0.2-0.2c0-0.3-0.9-1.1-1.2-1
			c-1,0.2-1.1,1.7-1,2.2C71,248.7,73.1,250,75.4,249.6z"/>
		<path class="st0" d="M71.6,229.4c-1.7,0-1-1.2-1.7-1.2c-0.2,0-0.2,0.1-0.2,0.3c0,0.7,0.1,1.3,0.1,2.1c0,1-0.1,1.4-0.1,2.1
			c0,0.2,0,0.4,0.3,0.4c0.5,0-0.1-1.8,1.8-1.8h2.5c0.4,0,0.8,0.1,0.8,0.6v4.8c0,0.3-0.2,0.4-0.7,0.4h-2.8c-1.6,0-1.1-1.2-1.6-1.2
			c-0.2,0-0.3,0.1-0.3,0.4c0,0.5,0.1,1.1,0.1,2.1c0,0.8-0.1,1.3-0.1,1.8c0,0.3,0,0.8,0.3,0.8c0.7,0-0.1-1.8,1.8-1.8h7.9
			c2.2,0,1.6,1.4,2.3,1.4c0.2,0,0.3-0.2,0.3-0.4c0-0.8-0.1-1.5-0.1-2.1c0-1.1,0.1-1.7,0.1-2.3c0-0.5-0.1-0.5-0.2-0.5
			c-0.6,0,0,2-2.2,2h-2.8c-0.8,0-1-0.1-1-0.8V232c0-0.7,0.2-0.7,0.9-0.7h3.2c1.7,0,1.2,1.2,1.9,1.2c0.1,0,0.2-0.1,0.2-0.3
			c0-0.8-0.1-1.4-0.1-2c0-0.7,0.1-1.6,0.1-2.1c0-0.2,0-0.3-0.2-0.3c-0.7,0,0,1.7-2.3,1.7H71.6z"/>
		<path class="st0" d="M80.1,224.7c1.8,0.2,1.3,1.7,2,1.8c0.3,0,0.2-0.3,0.3-0.5c0-0.4,0-0.9,0.1-1.4c0.1-0.6,0.2-1.1,0.3-1.9
			c0-0.2,0.1-0.6-0.2-0.6c-0.8-0.1,0.2,2.1-3.2,1.7l-6-0.6c-0.2,0-0.3-0.1-0.3-0.2c0-0.1,0.1-0.2,0.3-0.3l10-6.7
			c0.1-0.1,0.3-0.2,0.3-0.4c0-0.2-0.1-0.2-0.5-0.2l-9.9-1c-1.9-0.2-1.3-1.5-1.8-1.6c-0.1,0-0.2,0-0.3,0.3c0,0.1,0,0.7-0.1,1.7
			c-0.1,1.1-0.2,1.6-0.2,1.8c0,0.2,0.1,0.3,0.3,0.3c0.6,0.1,0.5-1.9,2.1-1.8l5.9,0.6c0.4,0,0.6,0.1,0.6,0.2c0,0.1-0.2,0.3-0.5,0.4
			l-8.4,5.6c-0.4,0.3-0.5,0.1-0.5,0.6c-0.1,0.8-0.1,1.3-0.1,1.7c0,0.3-0.1,0.6-0.2,0.9c0,0.2,0.1,0.3,0.3,0.3
			c0.8,0.1-0.1-1.8,3.3-1.5L80.1,224.7z"/>
		<path class="st0" d="M74.3,206.5c-1.7-0.4-0.8-1.4-1.4-1.5c-0.2,0-0.3,0-0.4,0.5c-0.2,0.9-0.2,1.5-0.4,2c-0.1,0.5-0.3,1.1-0.4,1.8
			c0,0.1-0.2,0.5,0.1,0.6c0.6,0.1,0.5-1.7,2.1-1.4l8.3,1.8c1.6,0.3,1,1.4,1.6,1.5c0.1,0,0.2,0,0.2-0.1c0.1-0.4,0.2-1.1,0.3-1.8
			c0.3-1.2,0.5-1.8,0.6-2.4c0.1-0.4,0-0.5-0.2-0.6c-0.6-0.1-0.1,1.8-2.3,1.3L74.3,206.5z"/>
		<path class="st0" d="M78,191.8c-0.1,0-0.1,0.1-0.2,0.1c-0.1,0.2,0.5,0.4,0.3,0.7c-0.2,0.5-1.6,1.2-2.3,3c-1.4,3.8,1.6,6.7,4.4,7.8
			c1.3,0.5,5.8,1.5,7.5-2.9c1.2-3.2-0.7-5.7-1.3-6c-0.1,0-0.2,0.1-0.3,0.1c-0.2,0.4,1.6,2.2,0.7,4.5c-1.1,2.8-4.8,2.8-7.2,1.9
			c-2.2-0.9-4.1-3-3.2-5.1c0.7-1.7,2.6-2.5,4.5-2.6c0.3,0,0.6,0,0.7-0.2c0.1-0.3-0.3-0.3-0.5-0.4L78,191.8z"/>
		<path class="st0" d="M117.2,347.8c0.1-1.2,0.1-1.3-0.2-1.5c-0.4-0.2-0.9,0.3-1.4,0.8l-19.2,16.1c-1.8,1.5-3.3,0.4-3.7,1.2
			c-0.2,0.4,0.3,0.6,0.8,0.9c0.9,0.5,1.9,0.8,2.9,1.3c1,0.5,1.9,1.2,3,1.7c0.7,0.3,1.6,1.1,1.9,0.4c0.5-0.9-3.3-2.1-2-4.6
			c0.4-0.8,1.5-1.8,2-2.3c1.9-1.9,2.6-1.7,3.2-1.4l6.3,3.2c0.8,0.4,0.8,0.8,0.5,4c-0.1,1.1-0.2,1.8-0.6,2.6c-1,2.1-3.1,0.5-3.6,1.5
			c-0.2,0.5,0.2,0.6,0.8,0.9c0.9,0.5,2.2,1,3.6,1.7c2.1,1.1,2.9,1.7,4.1,2.3c0.9,0.4,1.1,0.7,1.4,0.1c0.6-1.1-1.8-0.7-1.7-3.6
			L117.2,347.8z M112.2,360.1c0,0.5,0,1-0.3,1.4c-0.2,0.3-0.6,0.1-1.2-0.2l-4.4-2.2c-0.6-0.3-1-0.5-0.9-0.8c0.2-0.5,0.6-0.7,1-1.1
			l5.5-4.7c0.3-0.3,0.5-0.3,0.6-0.2c0.2,0.1,0.1,0,0.1,0.4L112.2,360.1z"/>
		<path class="st0" d="M269.7,347.7c-0.8-1-1.4,1.4-4,0l-22-12.3c-1.1-0.6-1.2-0.6-1.4-0.4c-0.4,0.3-0.1,1,0.1,1.6l6.5,24.2
			c0.6,2.2-1,3.2-0.5,3.9c0.3,0.4,0.7,0,1.1-0.3c0.8-0.6,1.6-1.4,2.4-2.1c0.9-0.7,1.9-1.3,2.8-2c0.6-0.5,1.6-0.9,1.1-1.6
			c-0.6-0.8-3.3,2.1-5-0.1c-0.6-0.7-1-2.1-1.2-2.8c-0.9-2.5-0.4-3.1,0.1-3.5l5.6-4.4c0.7-0.6,1.1-0.4,3.9,1.2
			c0.9,0.6,1.6,0.9,2.1,1.6c1.4,1.8-0.8,3.1-0.2,3.9c0.3,0.4,0.6,0.1,1.2-0.3c0.8-0.6,1.8-1.6,3-2.6c1.9-1.5,2.7-2,3.8-2.7
			C269.8,348.4,270.1,348.2,269.7,347.7z M253.1,346.9l-3.9,3c-0.5,0.4-0.9,0.7-1.1,0.4c-0.3-0.4-0.4-0.9-0.5-1.4l-2-7
			c-0.1-0.4,0-0.6,0-0.6c0.2-0.1,0.1,0,0.4,0.1l6.6,3.6c0.4,0.2,0.9,0.4,1.2,0.9C254,346.2,253.6,346.5,253.1,346.9z"/>
		<path class="st0" d="M146.8,135.7l-0.8-3.5c-0.3-1.4-1.7-2.4-3.2-2.1l-3.1,0.7l-0.7-3.2c-0.3-1.4-1.7-2.4-3.2-2.1l-3.5,0.7
			c-1.4,0.3-2.4,1.7-2.1,3.2l0.7,3.2l-3,0.6c-1.4,0.3-2.4,1.7-2,3.2l0.7,3.5c0.3,1.4,1.7,2.4,3.2,2.1l14.8-3.1
			C146.2,138.6,147.1,137.1,146.8,135.7z M137.3,140.2c-2.1,0.4-4.1-0.9-4.6-3c-0.4-2.1,0.9-4.1,3-4.6c2.1-0.4,4.1,0.9,4.6,3
			C140.7,137.7,139.3,139.7,137.3,140.2z"/>
		<path class="st0" d="M177.9,126.4h-3.1l0-3.3c0-1.5-1.2-2.7-2.7-2.7h-3.6c-1.5,0-2.7,1.2-2.7,2.7v3.3l-3.1,0
			c-1.5,0-2.7,1.2-2.7,2.7v3.6c0,1.5,1.2,2.7,2.7,2.7h15.1c1.5,0,2.7-1.2,2.7-2.7V129C180.6,127.6,179.4,126.4,177.9,126.4z
			 M170.4,135.1c-2.1,0-3.9-1.7-3.9-3.8c0-2.1,1.7-3.8,3.9-3.8c2.1,0,3.8,1.7,3.8,3.8C174.2,133.3,172.5,135.1,170.4,135.1z"/>
		<path class="st0" d="M212.9,133.3l-3-0.6l0.7-3.2c0.3-1.4-0.6-2.9-2.1-3.2l-3.5-0.7c-1.4-0.3-2.9,0.6-3.2,2.1l-0.7,3.2l-3.1-0.7
			c-1.4-0.3-2.9,0.6-3.2,2.1l-0.8,3.5c-0.3,1.4,0.6,2.9,2.1,3.2L211,142c1.4,0.3,2.9-0.6,3.2-2.1l0.7-3.5
			C215.2,135,214.3,133.6,212.9,133.3z M208.2,137.2c-0.4,2.1-2.5,3.4-4.6,3c-2.1-0.4-3.4-2.5-3-4.6c0.4-2.1,2.5-3.4,4.6-3
			C207.3,133.1,208.6,135.1,208.2,137.2z"/>
		<path class="st0" d="M238.4,139.9c-1.3-0.8-2.9-0.4-3.7,0.9l-1.7,2.8l-2.7-1.6c-1.3-0.8-2.9-0.4-3.7,0.9l-1.9,3.1
			c-0.8,1.3-0.3,2.9,0.9,3.7l5.8,3.7c1.3,0.8,2.9,0.4,3.7-0.9l1.9-3.1c0.8-1.3,1.3-2.4,1.3-2.4l3-5.2L238.4,139.9z M232.2,152.8
			c-1.8-1.1-2.4-3.5-1.3-5.3c1.1-1.8,3.5-2.4,5.3-1.3L232.2,152.8z"/>
		<path class="st0" d="M116.1,146l-1.9-3.1c-0.8-1.3-2.4-1.7-3.7-0.9l-2.7,1.6l-1.7-2.8c-0.8-1.3-2.4-1.7-3.7-0.9l-3.1,1.8l3,5.2
			c0,0,0.6,1.1,1.3,2.4l1.9,3.1c0.8,1.3,2.4,1.7,3.7,0.9l5.8-3.7C116.5,148.9,116.9,147.3,116.1,146z M108.7,152.8l-4-6.6
			c1.8-1.1,4.2-0.5,5.3,1.3C111.1,149.4,110.5,151.8,108.7,152.8z"/>
		<path class="st0" d="M83.2,137.9c-0.2-0.2-0.5-0.2-0.7,0c-0.2,0.2-0.2,0.6-0.4,0.8c-0.2,0.2-0.5,0.6-1.2,0.4
			c-5-1.5-10.9-3.2-11.1-3.3c-0.3-0.3,0-1.1,0-2.4c-0.1-1.3-0.6-2.9-2.4-4.4c-1.3-1.1-5.8-4.2-10.1,0.8c-1.3,1.5-2.6,3.2-3.9,4.7
			c-1.3,1.4-1.5,1.5-2.5,2.6c-0.2,0.3-0.3,0.6,0,0.9c1,0.9,2.2-2.5,5.4,0.3l12.6,11c3.6,3.1,1,4.2,2,5c0.6,0.5,0.9-0.1,1.1-0.3
			c1-1.1,1.9-2.4,3-3.6c0.8-1,1.5-1.5,1.8-1.9c0.5-0.5,0.4-0.9,0.2-1.1c-1-0.9-1.8,2.4-4.9-0.3l-5-4.3c-1-0.9-1.3-0.9-0.3-2.1
			c1-1.1,1.6-1.3,3.3-0.8l6.2,2c2.3,0.7,4.7,1.6,6.3-0.2C83.4,140.8,84.1,138.7,83.2,137.9z M65.8,139.1c-0.6,0.7-1.3,1.5-2.1,0.9
			l-5.8-5c-1.7-1.5-1.1-2.2-0.4-3.1c2-2.3,5.3-1.8,8.1,0.7C67.3,134,68.8,135.6,65.8,139.1z"/>
		<path class="st0" d="M143.9,107.6c-0.4-1.2-1.5,0.7-3.3-1.5l-15-19.6c-0.7-1-0.8-1-1.1-0.9c-0.4,0.1-0.3,0.9-0.3,1.5l-0.7,24.4
			c-0.1,2.3-1.6,2.5-1.3,3.4c0.2,0.5,0.6,0.2,1,0.1c0.8-0.3,1.6-0.7,2.5-1c0.9-0.3,1.8-0.4,2.8-0.7c0.6-0.2,1.6-0.2,1.3-1
			c-0.3-1-3.3,0.6-4.1-2c-0.3-0.9-0.3-2.3-0.3-3.1c-0.1-2.6,0.5-2.9,0.9-3.1l5.7-1.8c0.8-0.2,1,0.1,2.9,2.6c0.6,0.9,1,1.5,1.3,2.3
			c0.7,2.2-1.5,2.5-1.1,3.5c0.2,0.5,0.5,0.3,1,0.1c0.8-0.3,1.9-0.8,3.1-1.2c1.9-0.6,2.7-0.7,3.8-1.1
			C143.8,108.2,144.1,108.2,143.9,107.6z M130.4,100.5l-3.9,1.3c-0.5,0.2-0.9,0.3-1,0c-0.2-0.5-0.1-1-0.1-1.4l0.1-7.1
			c0-0.4,0.1-0.5,0.2-0.5c0.1,0,0.1,0,0.3,0.2l4.5,5.8c0.3,0.4,0.6,0.7,0.8,1.2C131.4,100.3,131,100.3,130.4,100.5z"/>
		<path class="st0" d="M323,223.9c0-0.4-0.8-0.5-1.4-0.6l-23.8-5.9c-2.2-0.5-2.1-2.1-3-2c-0.5,0.1-0.4,0.5-0.3,1
			c0.1,0.9,0.3,1.8,0.4,2.7c0.1,1,0,1.9,0.1,2.9c0.1,0.6-0.1,1.6,0.7,1.5c1-0.1,0.1-3.3,2.8-3.6c0.9-0.1,2.3,0.2,3.1,0.3
			c2.6,0.4,2.8,1.1,2.8,1.6l0.6,6c0.1,0.8-0.3,1-3.2,2.3c-1,0.4-1.7,0.7-2.5,0.8c-2.3,0.2-2.1-2-3.2-1.9c-0.5,0.1-0.4,0.4-0.4,1
			c0.1,0.9,0.4,2,0.5,3.3c0.2,2,0.1,2.8,0.2,3.9c0.1,0.8,0,1.1,0.7,1c1.3-0.1-0.4-1.6,2.2-2.9l22.4-10.5
			C323,224.2,323.1,224.1,323,223.9z M315.5,223.7l-6.6,3.2c-0.4,0.2-0.8,0.4-1.4,0.5c-0.4,0-0.4-0.4-0.4-0.9l-0.4-4.1
			c-0.1-0.5-0.1-1,0.2-1c0.5-0.1,1,0.1,1.4,0.2l7,1.7c0.4,0.1,0.5,0.2,0.5,0.3C315.8,223.6,315.7,223.5,315.5,223.7z"/>
		<path class="st0" d="M268.1,202.7c-1.2-3.6-4.8-4.6-8.7-3.4c-3.6,1.2-5.4,4-4.4,7c1.6,4.8,6.2,4.3,8.7,3.5
			C267.5,208.6,269,205.7,268.1,202.7z M262.4,208.2c-3,1-5.6,0.9-6.5-1.7c-0.9-2.7,2.5-4.8,5.1-5.7c2.6-0.8,5.3-0.9,6.2,1.7
			C267.8,204.5,266.3,207,262.4,208.2z"/>
		<path class="st0" d="M262.9,190.7c-0.4-1-1-1.9-1.4-2.9c-0.4-0.9-0.4-1.1-0.7-1.7c-0.1-0.2-0.2-0.3-0.4-0.2
			c-0.6,0.3,0.7,1.6-1.1,2.4l-7.5,3.5c-2.1,1-2.1-0.4-2.7-0.2c-0.3,0.2-0.1,0.4-0.1,0.6c0.3,0.7,0.7,1.4,1.1,2.2
			c0.3,0.6,0.4,1,0.5,1.3c0.2,0.3,0.3,0.4,0.5,0.3c0.6-0.3-0.7-1.4,1.1-2.2l2.9-1.4c0.6-0.3,0.7-0.4,1,0.3c0.3,0.7,0.3,1-0.3,1.7
			l-2.1,2.5c-0.8,0.9-1.6,1.9-1.1,3c0.3,0.6,1.1,1.3,1.6,1.1c0.1-0.1,0.2-0.2,0.1-0.3c-0.1-0.1-0.2-0.2-0.3-0.4
			c-0.1-0.1-0.2-0.4,0-0.6c1.7-2,3.5-4.4,3.6-4.4c0.2-0.1,0.5,0.3,1.1,0.5c0.6,0.2,1.4,0.3,2.5-0.2
			C262.1,195.3,264.3,193.9,262.9,190.7z M260,194.1c-1,0.5-2,0.8-3-1.4c-0.2-0.4-0.4-1,0-1.2l3.4-1.6c1-0.5,1.2,0,1.5,0.5
			C262.5,191.9,261.6,193.3,260,194.1z"/>
		<path class="st0" d="M271.9,224.6c-0.7-0.1-0.2,1.7-2.3,1.5l-8.2-0.8c-2.4-0.2-1.6-1.5-2.2-1.5c-0.4,0-0.3,0.3-0.4,0.5
			c-0.1,0.8-0.1,1.6-0.2,2.4c-0.1,0.7-0.2,1.1-0.2,1.4c0,0.4,0.1,0.5,0.2,0.5c0.7,0.1,0.1-1.6,2.1-1.4l3.2,0.3
			c0.7,0.1,0.8,0,0.7,0.8c-0.1,0.8-0.3,1.1-1.1,1.3l-3.1,1c-1.1,0.4-2.4,0.8-2.5,2c-0.1,0.6,0.2,1.7,0.8,1.8c0.2,0,0.3-0.1,0.3-0.2
			c0-0.2-0.1-0.3-0.1-0.5c0-0.1,0-0.4,0.4-0.5c2.5-0.9,5.3-2,5.4-2c0.2,0,0.3,0.5,0.7,1c0.4,0.5,1,1,2.3,1.1c0.9,0.1,3.5,0,3.9-3.4
			c0.1-1.1,0.1-2.1,0.2-3.2c0.1-1,0.2-1.1,0.3-1.8C272.1,224.8,272.1,224.6,271.9,224.6z M270.9,229.3c-0.2,1.6-1.6,2.4-3.5,2.2
			c-1.1-0.1-2.2-0.3-1.9-2.7c0-0.5,0.1-1.1,0.6-1l3.8,0.4C271,228.2,270.9,228.7,270.9,229.3z"/>
		<path class="st0" d="M96.1,183.7c-0.5-0.3-0.3,0.8-1.7,0.6l-11.6-1.5c-0.6-0.1-0.6-0.1-0.7,0.1c-0.1,0.2,0.2,0.4,0.3,0.7l7.3,9
			c0.7,0.8,0.2,1.5,0.5,1.7c0.2,0.1,0.3-0.1,0.4-0.3c0.2-0.4,0.4-0.8,0.6-1.3c0.2-0.4,0.5-0.8,0.8-1.3c0.2-0.3,0.5-0.7,0.2-0.8
			c-0.4-0.2-1,1.4-2.1,0.8c-0.4-0.2-0.8-0.7-1.1-1c-0.8-0.9-0.7-1.2-0.6-1.5l1.5-2.8c0.2-0.4,0.4-0.3,1.9-0.1
			c0.5,0.1,0.8,0.1,1.2,0.3c0.9,0.5,0.2,1.4,0.7,1.7c0.2,0.1,0.3-0.1,0.4-0.3c0.2-0.4,0.4-1,0.8-1.6c0.5-0.9,0.8-1.3,1.1-1.8
			C96.3,183.9,96.4,183.8,96.1,183.7z M89,186.1L88,188c-0.1,0.2-0.2,0.5-0.4,0.4c-0.2-0.1-0.3-0.3-0.5-0.5l-2.2-2.6
			c-0.1-0.2-0.1-0.2-0.1-0.3c0-0.1,0,0,0.2,0l3.4,0.4c0.2,0,0.4,0,0.7,0.2C89.3,185.6,89.2,185.8,89,186.1z"/>
		<path class="st1" d="M223.4,182.6l-1.2,0H113.8v59.9c0,26.4,1.6,48.3,21.9,68.9c11.9,12.1,20,17.7,33.5,26.9l0.8,0.6l1.5,1
			l1.4-1.1c4.1-3.4,7.8-6,11.3-8.6c7.2-5.2,13.4-9.7,21.4-19.1c19.3-23,22.7-40.4,22.7-68.5v-59.9H223.4z M201.8,307.9
			c-7.5,9-13.5,13.3-20.5,18.3c-3.6,2.6-5.9,4.1-10.1,7.6c-12.8-8.8-20.7-14.3-32.1-25.9c-19-19.4-20.5-39.4-20.5-65.6v-55.1
			l104.9,0v55.1C223.4,269.9,220.3,285.9,201.8,307.9z"/>
		<polygon class="st0" points="286.1,124 284.2,120.6 282.4,126.1 283.6,128.1 		"/>
		<path class="st0" d="M149.8,102c0.9,4.4-2.8,3.4-2.5,4.8c0.2,0.8,0.7,0.7,1.2,0.6c1.2-0.3,2.1-0.6,4.1-1c2-0.4,3-0.5,4.2-0.7
			c0.9-0.2,1.5-0.2,1.3-1.1c-0.2-1-3.8,0.9-4.8-3.7l-3.6-16.9c-0.4-1.8-0.1-2,1.1-2.3l2.5-0.5c3.4-0.9,3.3,3.5,4.5,3.2
			c0.8-0.2,0.1-1.6,0-2l-1.1-3.4c-0.1-0.4-0.2-0.9-0.7-0.8c-2.8,0.6-4.7,1.2-9.1,2.1c-4.4,0.9-6.4,1.2-9.2,1.8
			c-0.4,0.1-0.3,0.6-0.3,1l0.6,5c0,0.5,0,1.4,0.7,1.2c1.3-0.3-0.6-5,2.8-5.7l2.5-0.5c1.2-0.3,1.6-0.1,1.9,1.7L149.8,102z"/>
		<path class="st0" d="M109.8,116.1c2.1,4-1.8,4-1.1,5.3c0.4,0.7,0.8,0.5,1.3,0.2c1.1-0.6,1.9-1.2,3.7-2.1c1.8-0.9,2.8-1.3,3.9-1.8
			c0.8-0.4,1.4-0.6,1-1.4c-0.5-0.9-3.4,1.8-5.6-2.3l-8-15.3c-0.9-1.6-0.7-1.9,0.4-2.5l2.3-1.2c3-1.8,4.1,2.5,5.2,1.9
			c0.7-0.4-0.3-1.5-0.6-1.9l-1.9-3c-0.2-0.3-0.5-0.8-0.9-0.6c-2.5,1.3-4.3,2.4-8.2,4.5c-4,2.1-5.8,2.9-8.4,4.2c-0.4,0.2-0.2,0.7,0,1
			l1.9,4.7c0.2,0.5,0.4,1.3,1,1c1.2-0.6-1.9-4.6,1.2-6.2l2.3-1.2c1.1-0.6,1.5-0.6,2.3,1.1L109.8,116.1z"/>
		<polygon class="st0" points="155.3,353.1 151.4,353.3 155.6,357.2 157.9,357 		"/>
	</g>
</g>
</svg>
