<?xml version="1.0" encoding="utf-8"?>
<!-- Generator: Adobe Illustrator 25.1.0, SVG Export Plug-In . SVG Version: 6.00 Build 0)  -->
<svg version="1.1" id="Layer_1" xmlns="http://www.w3.org/2000/svg" xmlns:xlink="http://www.w3.org/1999/xlink" x="0px" y="0px"
	 viewBox="0 0 993 993" style="enable-background:new 0 0 993 993;" xml:space="preserve">
<style type="text/css">
	.st0{fill:#1565C0;}
</style>
<g>
	<defs>
		<path id="SVGID_1_" d="M53.6,492.1c0,243.3,197.2,440.5,440.5,440.5s440.5-197.2,440.5-440.5c0-243.3-197.2-440.5-440.5-440.5
			S53.6,248.9,53.6,492.1"/>
	</defs>
	<clipPath id="SVGID_2_">
		<use xlink:href="#SVGID_1_"  style="overflow:visible;"/>
	</clipPath>
	<use xlink:href="#SVGID_1_"  style="overflow:visible;fill:none;stroke:#1565C0;stroke-width:30;stroke-miterlimit:10;"/>
</g>
<path shape-rendering="geometricPrecision" class="st0" d="M666.9,350.5c-54.8,95.4-176.6,128.4-272,73.6c-1.8-1-3.5-2.1-5.2-3.1
	c-16.7-10.3-31.9-23.1-44.9-37.8c-34.4-38.8-52.3-89.4-49.9-141.1c0.3-5.8,0.8-11.6,1.5-17.3c0.7-5.7,1.7-11.3,3-16.9
	c1.3-5.7,2.8-11.4,4.5-17c1.7-5.4,3.7-10.8,5.9-16.1c2.3-5.5,4.8-10.9,7.5-16.1c2.9-5.5,6.1-10.9,9.5-16.2c3.1-4.8,6.5-9.5,10-14.1
	c3.9-5,8-9.7,12.3-14.3c4.4-4.6,8.9-9,13.7-13.2c4.8-4.3,9.9-8.2,15.1-12c2.7-1.9,5.4-3.8,8.2-5.6
	C268,143.7,219.6,287.3,277.1,406.9c0.5,1.1,1.1,2.3,1.7,3.4c0.3,0.5,0.5,1,0.8,1.5c0.1,0.3,0.3,0.6,0.5,0.9
	c0.3,0.4,0.4,0.3,0.9,0.3c2.6,0,5.2,0,7.7,0c4.8,0.1,9.5,0.4,14.3,0.8c90.3,8.5,163.5,76.9,178.2,166.4c3.2,19.9,3.4,40.2,0.6,60.2
	c-5.3,37.7-21.3,73-46.2,101.9c-14.2,16.5-31,30.6-49.8,41.8c-37.4,22.1-81,31.4-124.2,26.5c-7.8-0.9-15.6-2.2-23.2-4
	c-5-1.2-9.9-2.5-14.7-4.1c21.8,9.7,44.9,16.1,68.5,19c22.1,2.7,44.4,2.5,66.4-0.8c39.3-5.9,76.7-21.3,108.7-44.9
	c23.5-17.3,43.7-38.7,59.7-63.1c0.7-1.1,1.4-2.1,2.1-3.2c0.3-0.4,0.9-1.1,0.8-1.5c-0.3-0.7-0.6-1.3-1.1-1.9c-1.3-2.5-2.6-5-3.8-7.6
	c-2.5-5.1-4.7-10.4-6.7-15.7c-4.1-10.8-7.2-22-9.3-33.4c-4.6-24.5-4.6-49.5,0-74c3.9-20.8,11.1-40.8,21.4-59.3
	c34.8-63.2,101-102.6,173.1-103.1c4.9,0,9.8,0.1,14.7,0.4c4.7,0.3,9.4,0.8,14.1,1.4c4.6,0.6,9.2,1.4,13.8,2.4
	c4.5,0.9,8.9,2,13.4,3.3c4.3,1.2,8.6,2.6,12.8,4.1c4.3,1.5,8.5,3.2,12.7,5.1c4.3,1.9,8.4,3.9,12.6,6c4.1,2.2,8.1,4.5,12.1,6.9
	c3.7,2.3,7.4,4.7,10.9,7.3c3.7,2.6,7.2,5.4,10.7,8.2c3.6,2.9,7.1,6,10.5,9.2c3.6,3.4,7.1,6.9,10.4,10.6c3.3,3.6,6.5,7.4,9.6,11.3
	c3.4,4.3,6.6,8.8,9.7,13.4c3.1,4.7,6,9.6,8.7,14.5c3.8,6.9,7.1,14.1,10.1,21.4c3.2,8,5.8,16.1,8,24.4
	c-5.8-44.3-23.7-86.1-51.7-120.9c-20.6-25.6-46.1-46.9-75-62.5c-29.7-16-62.3-25.6-95.9-28.3C672.6,350.8,669.8,350.6,666.9,350.5z"
	/>
</svg>
