<?xml version="1.0" encoding="iso-8859-1"?>
<!-- Generator: Adobe Illustrator 19.0.0, SVG Export Plug-In . SVG Version: 6.00 Build 0)  -->
<svg version="1.1" xmlns="http://www.w3.org/2000/svg" xmlns:xlink="http://www.w3.org/1999/xlink"
	 viewBox="0 115 59 30" width="89">
<path d="M9.812 15.642a36.878 36.878 0 01-7.254-.634A8.277 8.277 0 010 14.135v3.546c0 1.183 4.393 2.142 9.811 2.142 5.419 0 9.811-.959 9.811-2.142v-3.546a8.28 8.28 0 01-2.556.873 36.88 36.88 0 01-7.255.634m0-5.59a36.878 36.878 0 01-7.254-.633A8.277 8.277 0 010 8.552v3.42h.055c0 .595 3.432 1.76 9.756 1.76 6.325 0 9.75-1.168 9.75-1.767h.054V8.552c-.8.43-1.664.725-2.556.874a36.86 36.86 0 01-7.248.627M19.62 2.14C19.62.958 15.227 0 9.812 0S.002.958.002 2.141a.472.472 0 000 .07.466.466 0 000 .07v3.875h.054c0 .595 3.432 1.76 9.756 1.76 6.325 0 9.75-1.169 9.75-1.767h.054V2.275a.469.469 0 000-.07.506.506 0 00.004-.064m14.27 3.515a.673.673 0 01-.226.282.558.558 0 01-.306.082.764.764 0 01-.398-.141 13.25 13.25 0 00-.523-.314 4.237 4.237 0 00-.704-.314 2.893 2.893 0 00-.953-.14c-.33 0-.619.04-.864.122a1.812 1.812 0 00-.62.341 1.36 1.36 0 00-.377.523 1.76 1.76 0 00-.124.668c0 .31.085.567.253.773.168.206.391.382.669.528.278.145.594.275.948.39.354.116.716.238 1.085.369.37.13.731.282 1.086.454.354.173.67.391.948.655.277.264.5.587.669.969.168.381.253.845.253 1.39 0 .595-.1 1.15-.297 1.67a3.877 3.877 0 01-.869 1.354 4.082 4.082 0 01-1.395.91c-.55.22-1.179.331-1.888.331-.407 0-.81-.04-1.204-.123a6.206 6.206 0 01-1.14-.35 5.882 5.882 0 01-1.018-.545 5.07 5.07 0 01-.846-.71l.69-1.173a.887.887 0 01.236-.213.564.564 0 01.305-.086c.148 0 .307.062.479.186.171.124.373.262.607.414.233.15.508.29.824.413.315.125.695.187 1.138.187.68 0 1.206-.165 1.577-.496.372-.33.559-.804.559-1.423 0-.345-.085-.627-.253-.845a2.05 2.05 0 00-.669-.55 4.931 4.931 0 00-.948-.378 30.587 30.587 0 01-1.081-.336 9.201 9.201 0 01-1.08-.437 3.481 3.481 0 01-.949-.664 3.022 3.022 0 01-.669-1.023c-.168-.409-.252-.913-.252-1.514a3.665 3.665 0 011.094-2.609 4.013 4.013 0 011.316-.846c.52-.212 1.113-.318 1.78-.318.756 0 1.454.121 2.092.364a4.704 4.704 0 011.63 1.018l-.585 1.155zm12.485 4.183c0-.722-.093-1.369-.28-1.942a4.131 4.131 0 00-.801-1.46 3.458 3.458 0 00-1.272-.918c-.499-.212-1.062-.318-1.688-.318-.626 0-1.19.106-1.692.318a3.489 3.489 0 00-1.28.919 4.15 4.15 0 00-.811 1.46c-.19.572-.284 1.22-.284 1.94 0 .722.095 1.37.284 1.942.189.573.46 1.058.81 1.455.352.397.779.701 1.281.914.502.212 1.066.318 1.692.318.626 0 1.189-.106 1.688-.318a3.48 3.48 0 001.272-.914c.348-.397.616-.882.801-1.455.187-.573.28-1.22.28-1.941m2.445 0c0 .588-.059 1.15-.177 1.686a7.024 7.024 0 01-.51 1.505 6.293 6.293 0 01-.81 1.287 5.84 5.84 0 01-1.09 1.032l3.252 3.637h-1.967c-.284 0-.54-.04-.767-.118a1.495 1.495 0 01-.624-.436l-1.879-2.129c-.301.085-.61.15-.926.192a7.404 7.404 0 01-.988.063c-.969 0-1.853-.168-2.654-.504a6.007 6.007 0 01-2.055-1.405 6.335 6.335 0 01-1.325-2.133 7.46 7.46 0 01-.47-2.677c0-.964.157-1.857.47-2.678a6.34 6.34 0 011.325-2.133 6.01 6.01 0 012.055-1.404c.8-.337 1.685-.505 2.654-.505.969 0 1.852.17 2.65.51a6.04 6.04 0 012.046 1.404 6.316 6.316 0 011.32 2.128c.313.821.47 1.714.47 2.678m4.262 4.555h5.13v2.019h-7.514V3.264h2.384z"></path>
</svg>